<svg width="26" height="22" viewBox="0 0 26 22" fill="none" xmlns="http://www.w3.org/2000/svg">
<path d="M22.9498 5.02857H18.3857C18.6293 4.55086 18.7831 4.02286 18.7831 3.45714C18.7831 1.54629 17.2062 0 15.2575 0C14.2446 0 13.3344 0.427429 12.6934 1.09371C12.0523 0.414857 11.1421 0 10.1293 0C8.18054 0 6.60362 1.54629 6.60362 3.45714C6.60362 4.02286 6.75746 4.55086 7.00105 5.02857H2.43695C1.20618 5.02857 0.193359 6.02171 0.193359 7.22857V9.74286C0.193359 10.6229 0.719 11.3646 1.47541 11.7166V18.5429C1.47541 20.4537 3.05233 22 5.00105 22H20.3857C22.3344 22 23.9113 20.4537 23.9113 18.5429V11.7166C24.6677 11.3646 25.1934 10.6103 25.1934 9.74286V7.22857C25.1934 6.02171 24.1805 5.02857 22.9498 5.02857ZM23.2703 7.22857V9.74286C23.2703 9.91886 23.1293 10.0571 22.9498 10.0571H13.6549V6.91429H22.9498C23.1293 6.91429 23.2703 7.05257 23.2703 7.22857ZM15.2575 1.88571C16.1421 1.88571 16.86 2.58971 16.86 3.45714C16.86 4.32457 16.1421 5.02857 15.2575 5.02857C14.3728 5.02857 13.6549 4.32457 13.6549 3.45714C13.6549 2.58971 14.3728 1.88571 15.2575 1.88571ZM8.52669 3.45714C8.52669 2.58971 9.24464 1.88571 10.1293 1.88571C11.0139 1.88571 11.7318 2.58971 11.7318 3.45714C11.7318 4.32457 11.0139 5.02857 10.1293 5.02857C9.24464 5.02857 8.52669 4.32457 8.52669 3.45714ZM2.11644 7.22857C2.11644 7.05257 2.25746 6.91429 2.43695 6.91429H11.7318V10.0571H2.43695C2.25746 10.0571 2.11644 9.91886 2.11644 9.74286V7.22857ZM3.39849 18.5429V11.9429H11.7318V20.1143H5.00105C4.11644 20.1143 3.39849 19.4103 3.39849 18.5429ZM21.9882 18.5429C21.9882 19.4103 21.2703 20.1143 20.3857 20.1143H13.6549V11.9429H21.9882V18.5429Z" fill="#333333"/>
</svg>
