<svg width="23" height="24" viewBox="0 0 23 24" fill="none" xmlns="http://www.w3.org/2000/svg">
<path d="M0.599998 10.8598L3.27503 7.77045C3.56036 7.44029 3.97648 7.22805 4.41637 7.20446L8.77965 6.8861L10.7295 4.63397C11.4309 3.83216 12.3107 3.18364 13.2975 2.78273L18.279 0.719261C19.2777 0.306567 20.3952 0.483436 21.2156 1.19091C22.024 1.8866 22.3688 2.97139 22.1073 4.00903L20.7757 9.22077C20.5141 10.2466 20.0029 11.2253 19.3133 12.0271L17.3635 14.2792L17.6845 18.6302C17.7202 19.0665 17.5775 19.5028 17.2803 19.8329L14.6053 22.9222C14.2843 23.2995 13.8206 23.5 13.345 23.5C13.2024 23.5 13.0716 23.4882 12.9289 23.4528C12.3107 23.2995 11.847 22.8161 11.7044 22.203L11.0861 19.3495C11.0742 19.2905 11.0861 19.2316 11.0861 19.1726C11.0267 19.1726 10.9672 19.1962 10.8959 19.208C10.7532 19.208 10.6225 19.2198 10.4798 19.2198C9.42166 19.2198 8.3992 18.925 7.50752 18.3708L6.47318 19.5617C6.29484 19.7622 6.04517 19.8683 5.7955 19.8683C5.59339 19.8683 5.37939 19.7975 5.21294 19.656C4.84438 19.3377 4.79682 18.7835 5.11783 18.4062L6.16406 17.2035C5.33183 16.2248 4.89193 15.0339 4.84438 13.8076C4.80871 13.8076 4.77304 13.8312 4.72549 13.8312C4.70171 13.8312 4.67793 13.8312 4.66604 13.8312L1.75323 13.6307C1.12311 13.5835 0.57622 13.1944 0.32655 12.6166C0.0768801 12.0271 0.183881 11.3786 0.599998 10.8951V10.8598ZM20.0504 2.51153C19.7532 2.25213 19.3371 2.19317 18.9685 2.33467L13.9989 4.39814L19.0399 8.74912L20.3596 3.56096C20.4547 3.17185 20.3358 2.77094 20.0267 2.51153H20.0504ZM12.8219 18.9486L13.3926 21.578L15.8893 18.7363L15.6991 16.154L14.7717 17.227C14.201 17.8874 13.4996 18.3708 12.7149 18.7009C12.7625 18.7717 12.7981 18.8542 12.8219 18.9368V18.9486ZM11.3715 11.1663C11.6925 10.8008 12.2631 10.7536 12.6317 11.072C13.0002 11.3904 13.0478 11.9446 12.7268 12.3219L8.69643 16.9794C9.32655 17.3096 10.0399 17.4747 10.7651 17.4157C11.7995 17.345 12.7387 16.8733 13.4283 16.0833L17.958 10.8598C18.0888 10.7065 18.2076 10.5532 18.3146 10.3881C18.2314 10.3527 18.1482 10.3056 18.0769 10.2466L12.6555 5.57727C12.596 5.51831 12.5485 5.45935 12.5128 5.38861C12.3701 5.51831 12.2156 5.63622 12.0848 5.77772L7.54319 11.013C6.3424 12.3926 6.30673 14.3853 7.34108 15.8121L11.3596 11.1663H11.3715ZM4.79682 12.0271C4.88005 12.0271 4.96327 12.0625 5.0346 12.0978C5.24861 11.296 5.61717 10.5296 6.19973 9.8575L7.15085 8.74912L4.63038 8.9142L2.02668 11.8266L4.79682 12.0153V12.0271Z" fill="#333333"/>
</svg>
