<svg width="31" height="24" viewBox="0 0 31 24" fill="none" xmlns="http://www.w3.org/2000/svg">
<path d="M29.0323 10.0645C29.6671 10.0645 30.1935 9.53806 30.1935 8.90323V4.25806C30.1935 1.90452 28.289 0 25.9355 0H5.80645C2.60129 0 0 2.60129 0 5.80645V18.1935C0 21.3987 2.60129 24 5.80645 24H25.9355C28.289 24 30.1935 22.0955 30.1935 19.7419V16.6452C30.1935 15.1587 28.9703 13.9355 27.4839 13.9355H24V4.25806C24 3.18968 24.8671 2.32258 25.9355 2.32258C27.0039 2.32258 27.871 3.18968 27.871 4.25806V8.90323C27.871 9.53806 28.3974 10.0645 29.0323 10.0645ZM27.871 16.6452V19.7419C27.871 20.8103 27.0039 21.6774 25.9355 21.6774C24.8671 21.6774 24 20.8103 24 19.7419V16.2581H27.4839C27.7006 16.2581 27.871 16.4284 27.871 16.6452ZM21.6774 4.25806V19.7419C21.6774 20.4387 21.8632 21.089 22.1574 21.6774H5.80645C3.88645 21.6774 2.32258 20.1135 2.32258 18.1935V5.80645C2.32258 3.88645 3.88645 2.32258 5.80645 2.32258H22.1574C21.8632 2.91097 21.6774 3.56129 21.6774 4.25806Z" fill="#333333"/>
<path d="M4.64551 8.1308V11.2276C4.64551 12.296 5.5126 13.1631 6.58099 13.1631H17.4197C18.4881 13.1631 19.3552 12.296 19.3552 11.2276V8.1308C19.3552 7.06241 18.4881 6.19531 17.4197 6.19531H6.58099C5.5126 6.19531 4.64551 7.06241 4.64551 8.1308ZM6.96809 8.51789H17.0326V10.8405H6.96809V8.51789Z" fill="#333333"/>
<path d="M12.0003 15.4844H5.8068C5.17196 15.4844 4.64551 16.0108 4.64551 16.6457C4.64551 17.2805 5.17196 17.807 5.8068 17.807H12.0003C12.6352 17.807 13.1616 17.2805 13.1616 16.6457C13.1616 16.0108 12.6352 15.4844 12.0003 15.4844Z" fill="#333333"/>
</svg>
