<svg width="29" height="24" viewBox="0 0 29 24" fill="none" xmlns="http://www.w3.org/2000/svg">
<path d="M23.1024 4.36364H21.2843V4C21.2843 1.78909 19.4952 0 17.2843 0H11.4661C9.25518 0 7.46609 1.78909 7.46609 4V4.36364H5.6479C2.637 4.36364 0.193359 6.80727 0.193359 9.81818V18.5455C0.193359 21.5564 2.637 24 5.6479 24H23.1024C26.1134 24 28.557 21.5564 28.557 18.5455V9.81818C28.557 6.80727 26.1134 4.36364 23.1024 4.36364ZM9.6479 4C9.6479 2.99636 10.4625 2.18182 11.4661 2.18182H17.2843C18.2879 2.18182 19.1024 2.99636 19.1024 4V4.36364H9.6479V4ZM26.3752 18.5455C26.3752 20.3491 24.9061 21.8182 23.1024 21.8182H5.6479C3.84427 21.8182 2.37518 20.3491 2.37518 18.5455V9.81818C2.37518 8.01455 3.84427 6.54545 5.6479 6.54545H23.1024C24.9061 6.54545 26.3752 8.01455 26.3752 9.81818V18.5455Z" fill="#333333"/>
<path d="M14.3755 12.3629H15.8301C16.4264 12.3629 16.921 11.8684 16.921 11.272C16.921 10.6757 16.4264 10.1811 15.8301 10.1811H15.4664V9.81747C15.4664 9.22111 14.9719 8.72656 14.3755 8.72656C13.7792 8.72656 13.2846 9.22111 13.2846 9.81747V10.4429C12.4264 10.8502 11.8301 11.7229 11.8301 12.7266C11.8301 14.1229 12.9792 15.272 14.3755 15.272C14.5792 15.272 14.7392 15.432 14.7392 15.6357C14.7392 15.8393 14.5792 15.9993 14.3755 15.9993H12.921C12.3246 15.9993 11.8301 16.4938 11.8301 17.0902C11.8301 17.6866 12.3246 18.1811 12.921 18.1811H13.2846V18.5447C13.2846 19.1411 13.7792 19.6357 14.3755 19.6357C14.9719 19.6357 15.4664 19.1411 15.4664 18.5447V17.9193C16.3246 17.512 16.921 16.6393 16.921 15.6357C16.921 14.2393 15.7719 13.0902 14.3755 13.0902C14.1719 13.0902 14.0119 12.9302 14.0119 12.7266C14.0119 12.5229 14.1719 12.3629 14.3755 12.3629Z" fill="#333333"/>
</svg>
