<svg width="50" height="50" viewBox="0 0 50 50" fill="none" xmlns="http://www.w3.org/2000/svg">
<mask id="mask0_229_18875" style="mask-type:luminance" maskUnits="userSpaceOnUse" x="0" y="0" width="50" height="50">
<path d="M50 0H0V50H50V0Z" fill="white"/>
</mask>
<g mask="url(#mask0_229_18875)">
<path d="M55.9786 29.3239C55.7749 31.0982 53.6349 31.3465 52.2186 31.2201C51.3857 31.1479 49.3769 30.6061 50.0828 29.4052C50.4219 28.8273 50.9378 29.0982 51.4132 29.3239C52.0874 29.6399 52.8653 29.8341 53.5986 29.6128C53.7886 29.5542 53.9786 29.4638 54.1007 29.3058C54.2228 29.1478 54.2499 28.9086 54.1278 28.7505C54.0599 28.6647 53.9561 28.615 53.8519 28.5699C53.2636 28.3035 52.6482 28.0958 52.0194 27.9423C50.9424 27.6805 49.929 27.0349 49.9336 25.8023C49.9336 24.7504 50.8428 23.7706 51.9832 23.6081C52.2907 23.5675 52.6074 23.563 52.9199 23.5449C53.7569 23.5133 54.5394 23.6713 55.2411 24.1589C55.6615 24.4479 55.8336 24.7684 55.5486 25.2606C55.2907 25.703 55.0328 25.7752 54.5578 25.5088C53.9061 25.1431 53.1594 25.2335 52.4357 25.2786C52.1911 25.2921 51.8882 25.3147 51.8699 25.6443C51.8565 25.9288 52.0961 26.0913 52.3361 26.1725C52.9561 26.3847 53.594 26.5428 54.2182 26.7504C55.6165 27.22 56.1278 27.9785 55.974 29.3329L55.9786 29.3239Z" fill="#F8AF16"/>
<path d="M49.4033 24.6276C49.3308 25.1152 48.9917 25.2462 48.5437 25.3274C47.6162 25.499 47.0279 26.1852 46.9872 27.1559C46.9465 28.1537 46.9782 29.156 46.951 30.1538C46.9374 30.673 46.8379 31.1516 46.1185 31.1425C45.4172 31.1425 45.1864 30.7723 45.1909 30.1447C45.1999 29.2057 45.1909 28.2711 45.1909 27.3365C45.1909 26.3613 44.9511 25.0565 45.304 24.1264C45.4262 23.8104 45.7158 23.5982 46.0597 23.6208C46.2994 23.6389 46.5212 23.7382 46.7384 23.8375C46.9555 23.9368 47.1863 24.0272 47.4216 24.0181C47.7204 24.0091 47.9871 23.842 48.2633 23.7292C48.9692 23.4402 49.5121 23.8827 49.4033 24.6321V24.6276Z" fill="#F8AF16"/>
<path d="M39.2953 27.9747C39.888 27.9657 40.4853 27.9747 41.078 27.9747H42.3042C44.1096 27.9747 44.1005 27.9747 43.6888 26.2004C43.0644 23.5185 40.1459 22.9632 38.3316 23.9971C36.9606 24.7782 36.4945 26.0514 36.5081 27.618C36.5171 29.1621 37.4085 30.5391 38.8971 31.0674C39.8383 31.397 43.9919 31.3925 43.0055 29.5188C42.7612 29.0583 42.3856 29.144 41.9739 29.3066C41.3993 29.5323 40.8925 29.7265 40.2591 29.6226C39.6889 29.5278 39.155 29.2298 38.775 28.7964C38.6754 28.6835 38.5849 28.5526 38.5623 28.4036C38.4944 27.9341 38.9966 27.9883 39.2953 27.9838V27.9747ZM38.9062 25.6766C39.3586 25.0762 41.0373 25.0988 41.535 25.6902C41.7703 25.9701 41.9694 26.4351 41.5079 26.6338C41.3586 26.697 41.1911 26.7015 41.0283 26.7015C40.3857 26.7105 39.7432 26.715 39.1007 26.7241C38.9967 26.7241 38.8926 26.7241 38.7931 26.688C38.3044 26.4983 38.7206 25.9114 38.9016 25.6721L38.9062 25.6766Z" fill="#F8AF16"/>
<path d="M36.6718 10.7363C36.6718 12.9441 35.0565 14.6146 32.9027 14.6191C30.6721 14.6281 29.1156 12.9712 29.0206 10.7047C28.9391 8.73177 30.5363 6.73168 32.8665 7.02964C35.2918 7.02964 36.6627 8.36606 36.6673 10.7318L36.6718 10.7363Z" fill="#F8AF16"/>
<path d="M45.5253 8.15798C44.2539 10.1445 42.9598 12.122 41.6974 14.1176C39.322 17.8739 36.9646 21.6438 34.5937 25.4047C33.4987 27.1384 32.3902 28.8676 31.2952 30.5968C31.0554 30.9805 30.7251 31.1566 30.2817 31.1611H28.9605V31.1521C28.5216 31.1521 28.0782 31.1837 27.6438 31.1521C26.9968 31.0934 26.8067 30.7503 27.1461 30.204C28.3723 28.2174 29.6256 26.249 30.8653 24.2669C32.4354 21.7612 33.9964 19.251 35.5665 16.7497C37.0235 14.4336 38.4713 12.113 39.96 9.81944C40.245 9.37702 40.5572 8.91648 40.7608 8.46952C41.2766 7.33627 42.0956 6.99314 43.2449 7.07894C43.8376 7.11956 44.4439 7.06089 45.0321 7.11956C45.7063 7.18277 45.8828 7.5891 45.5208 8.15798H45.5253Z" fill="#F8AF16"/>
<path d="M16.704 15.1751C16.618 15.5092 16.6225 15.8072 16.8398 15.9652C17.0026 16.0871 17.2243 16.0961 17.428 16.0961C19.5591 16.1187 21.8078 16.0871 23.6765 17.112C29.3414 20.2136 26.233 27.2342 21.8667 29.7671C19.1926 31.3202 16.0208 31.8303 12.9259 31.8394C11.6318 31.8394 10.3152 31.7581 9.10254 31.3066C7.88993 30.8551 6.78138 29.9973 6.27462 28.8099C5.4647 26.9046 6.52801 24.5028 8.39217 23.5908C10.9215 22.3582 14.0888 23.672 15.1385 26.2139C15.3511 26.7286 15.2742 27.2613 15.3285 27.7896C15.3737 28.2591 15.609 28.4848 16.0886 28.2817C18.256 27.3787 19.5998 24.7691 19.4324 23.0806C19.1926 20.6381 16.8126 19.5951 14.6136 19.4506C12.9168 19.3378 11.2065 19.5996 9.52334 19.3558C9.34235 19.3288 9.13874 19.2791 9.05277 19.1211C8.98943 18.9946 9.01658 18.8457 9.05277 18.7102C9.66813 16.1638 10.8445 13.771 11.573 11.2517C11.8762 10.2088 12.297 9.19743 12.677 8.17709C12.9576 7.43214 13.4508 7.05289 14.3195 7.07093C16.4506 7.11609 18.5863 7.08451 20.7219 7.08451C22.8575 7.08451 24.9932 7.07093 27.1288 7.08451C28.26 7.08451 28.4953 7.3328 28.1017 8.35318C27.6809 9.44576 27.2736 10.5609 26.7126 11.6038C26.3687 12.245 25.8981 12.4797 25.1968 12.4707C23.0612 12.4481 20.93 12.4797 18.7944 12.4571C18.0116 12.4436 17.4732 12.5926 17.3375 13.5091C17.2832 13.8703 16.8578 14.5836 16.7085 15.1661L16.704 15.1751Z" fill="#F8AF16"/>
</g>
</svg>
