<svg width="47" height="52" viewBox="0 0 47 52" fill="none" xmlns="http://www.w3.org/2000/svg">
<path d="M8.5 23.5C8.5 16.43 8.5 12.8925 10.6975 10.6975C12.8925 8.5 16.43 8.5 23.5 8.5H31C38.07 8.5 41.6075 8.5 43.8025 10.6975C46 12.8925 46 16.43 46 23.5V36C46 43.07 46 46.6075 43.8025 48.8025C41.6075 51 38.07 51 31 51H23.5C16.43 51 12.8925 51 10.6975 48.8025C8.5 46.6075 8.5 43.07 8.5 36V23.5Z" stroke="#FF0000" stroke-width="1.5"/>
<path d="M8.5 43.5C6.51088 43.5 4.60322 42.7098 3.1967 41.3033C1.79018 39.8968 1 37.9891 1 36V21C1 11.5725 1 6.8575 3.93 3.93C6.8575 1 11.5725 1 21 1H31C32.9891 1 34.8968 1.79018 36.3033 3.1967C37.7098 4.60322 38.5 6.51088 38.5 8.5" stroke="#FF0000" stroke-width="1.5"/>
</svg>
