<svg width="11" height="9" viewBox="0 0 11 9" fill="none" xmlns="http://www.w3.org/2000/svg">
<g clip-path="url(#clip0_229_16997)">
<g clip-path="url(#clip1_229_16997)">
<path d="M0.176758 -0.210938H10.1323V9.74462H0.176758V-0.210938Z" fill="#012169"/>
<path d="M10.1323 -0.210938V1.03351L6.43787 4.76684L10.1323 8.40295V9.74462H8.82954L5.11565 6.08906L1.49898 9.74462H0.176758V8.4224L3.79342 4.78628L0.176758 1.22795V-0.210938H1.38231L5.11565 3.44462L8.73231 -0.210938H10.1323Z" fill="white"/>
<path d="M3.75454 6.08906L3.96842 6.75017L0.993424 9.74462H0.176758V9.68628L3.75454 6.08906ZM6.16565 5.85573L7.21565 6.01128L10.1323 8.86962V9.74462L6.16565 5.85573ZM10.1323 -0.210938L6.39898 3.60017L6.3212 2.74462L9.23787 -0.210938H10.1323ZM0.176758 -0.191493L3.92954 3.48351L2.78231 3.32795L0.176758 0.74184V-0.191493Z" fill="#C8102E"/>
<path d="M3.59898 -0.210938V9.74462H6.71009V-0.210938H3.59898ZM0.176758 3.21128V6.3224H10.1323V3.21128H0.176758Z" fill="white"/>
<path d="M0.176758 3.83351V5.70017H10.1323V3.83351H0.176758ZM4.2212 -0.210938V9.74462H6.08787V-0.210938H4.2212Z" fill="#C8102E"/>
</g>
</g>
<defs>
<clipPath id="clip0_229_16997">
<rect width="9.95555" height="7.95733" fill="white" transform="translate(0.176758 0.789062)"/>
</clipPath>
<clipPath id="clip1_229_16997">
<rect width="9.95555" height="9.95555" fill="white" transform="translate(0.176758 -0.210938)"/>
</clipPath>
</defs>
</svg>
