<svg width="56" height="50" viewBox="0 0 56 50" fill="none" xmlns="http://www.w3.org/2000/svg">
<path d="M40.2462 17.8145H17.8464C17.144 17.8145 16.5781 18.422 16.5781 19.1713V30.8567C16.5781 31.606 17.144 32.2136 17.8464 32.2136H28.4414C35.4072 32.2136 41.0462 26.1583 41.0462 18.6853C41.0462 18.1992 40.6755 17.8145 40.2267 17.8145H40.2462Z" fill="#333333"/>
<path d="M12.1646 17.8132H2.05735C1.35491 17.8132 0.789062 18.4208 0.789062 19.1701V36.7488C0.789062 43.7762 6.09634 49.4668 12.6524 49.4668C13.0816 49.4668 13.4133 49.1026 13.4133 48.6366V19.1498C13.4133 18.4005 12.8475 17.793 12.1451 17.793L12.1646 17.8132Z" fill="#333333"/>
<path d="M54.8219 0.884766H26.6854C21.1049 0.884766 16.5781 5.74527 16.5781 11.7196V13.0765C16.5781 13.8258 17.144 14.4334 17.8464 14.4334H43.7194C50.2755 14.4334 55.5826 8.74254 55.5826 1.7151C55.5826 1.2696 55.2317 0.884766 54.8219 0.884766Z" fill="#333333"/>
<path d="M29.5341 35.4336H17.8464C17.144 35.4336 16.5781 36.0411 16.5781 36.7905V48.5975C16.5781 49.0834 16.9488 49.4884 17.4171 49.4884H18.0025C24.8122 49.4884 30.3146 43.5749 30.3146 36.2841C30.3146 35.8184 29.9634 35.4336 29.5146 35.4336H29.5341Z" fill="#333333"/>
<path d="M0.789062 7.64896C0.789062 11.3956 3.61831 14.4131 7.11095 14.4131C10.6036 14.4131 13.4329 11.3753 13.4329 7.64896C13.4329 3.92258 10.6036 0.884766 7.11095 0.884766C3.61831 0.884766 0.789062 3.92258 0.789062 7.64896Z" fill="#333333"/>
</svg>
