<svg width="15" height="15" viewBox="0 0 15 15" fill="none" xmlns="http://www.w3.org/2000/svg">
<path d="M7.71987 0.371094C4.76287 0.371094 3.89806 0.374234 3.72995 0.388588C3.12313 0.440516 2.74553 0.538877 2.33414 0.749721C2.01712 0.91179 1.76708 1.09965 1.52032 1.36299C1.07092 1.84323 0.798559 2.43406 0.699962 3.13637C0.652028 3.47732 0.638081 3.54685 0.635249 5.28839C0.634162 5.8689 0.635249 6.6329 0.635249 7.65765C0.635249 10.6993 0.638515 11.5887 0.652681 11.7614C0.701707 12.3693 0.794308 12.7517 0.990412 13.17C1.36519 13.9708 2.08095 14.572 2.92419 14.7963C3.21617 14.8737 3.53865 14.9163 3.95264 14.9365C4.12805 14.9443 5.91584 14.9499 7.70472 14.9499C9.49361 14.9499 11.2825 14.9477 11.4535 14.9387C11.9329 14.9155 12.2113 14.877 12.519 14.7952C13.3677 14.5697 14.0704 13.9776 14.4528 13.1656C14.6451 12.7573 14.7426 12.3603 14.7867 11.7841C14.7963 11.6585 14.8003 9.65579 14.8003 7.65575C14.8003 5.65536 14.796 3.65632 14.7864 3.5307C14.7417 2.94526 14.6442 2.5516 14.4457 2.1355C14.2829 1.79489 14.102 1.54052 13.8395 1.28044C13.3709 0.81971 12.7978 0.539323 12.115 0.437937C11.7841 0.388699 11.7182 0.374119 10.0252 0.371094H7.71987Z" fill="url(#paint0_radial_229_17008)"/>
<path d="M7.71987 0.371094C4.76287 0.371094 3.89806 0.374234 3.72995 0.388588C3.12313 0.440516 2.74553 0.538877 2.33414 0.749721C2.01712 0.91179 1.76708 1.09965 1.52032 1.36299C1.07092 1.84323 0.798559 2.43406 0.699962 3.13637C0.652028 3.47732 0.638081 3.54685 0.635249 5.28839C0.634162 5.8689 0.635249 6.6329 0.635249 7.65765C0.635249 10.6993 0.638515 11.5887 0.652681 11.7614C0.701707 12.3693 0.794308 12.7517 0.990412 13.17C1.36519 13.9708 2.08095 14.572 2.92419 14.7963C3.21617 14.8737 3.53865 14.9163 3.95264 14.9365C4.12805 14.9443 5.91584 14.9499 7.70472 14.9499C9.49361 14.9499 11.2825 14.9477 11.4535 14.9387C11.9329 14.9155 12.2113 14.877 12.519 14.7952C13.3677 14.5697 14.0704 13.9776 14.4528 13.1656C14.6451 12.7573 14.7426 12.3603 14.7867 11.7841C14.7963 11.6585 14.8003 9.65579 14.8003 7.65575C14.8003 5.65536 14.796 3.65632 14.7864 3.5307C14.7417 2.94526 14.6442 2.5516 14.4457 2.1355C14.2829 1.79489 14.102 1.54052 13.8395 1.28044C13.3709 0.81971 12.7978 0.539323 12.115 0.437937C11.7841 0.388699 11.7182 0.374119 10.0252 0.371094H7.71987Z" fill="url(#paint1_radial_229_17008)"/>
<path d="M7.71987 0.371094C4.76287 0.371094 3.89806 0.374234 3.72995 0.388588C3.12313 0.440516 2.74553 0.538877 2.33414 0.749721C2.01712 0.91179 1.76708 1.09965 1.52032 1.36299C1.07092 1.84323 0.798559 2.43406 0.699962 3.13637C0.652028 3.47732 0.638081 3.54685 0.635249 5.28839C0.634162 5.8689 0.635249 6.6329 0.635249 7.65765C0.635249 10.6993 0.638515 11.5887 0.652681 11.7614C0.701707 12.3693 0.794308 12.7517 0.990412 13.17C1.36519 13.9708 2.08095 14.572 2.92419 14.7963C3.21617 14.8737 3.53865 14.9163 3.95264 14.9365C4.12805 14.9443 5.91584 14.9499 7.70472 14.9499C9.49361 14.9499 11.2825 14.9477 11.4535 14.9387C11.9329 14.9155 12.2113 14.877 12.519 14.7952C13.3677 14.5697 14.0704 13.9776 14.4528 13.1656C14.6451 12.7573 14.7426 12.3603 14.7867 11.7841C14.7963 11.6585 14.8003 9.65579 14.8003 7.65575C14.8003 5.65536 14.796 3.65632 14.7864 3.5307C14.7417 2.94526 14.6442 2.5516 14.4457 2.1355C14.2829 1.79489 14.102 1.54052 13.8395 1.28044C13.3709 0.81971 12.7978 0.539323 12.115 0.437937C11.7841 0.388699 11.7182 0.374119 10.0252 0.371094H7.71987Z" fill="url(#paint2_radial_229_17008)"/>
<path d="M7.71987 0.371094C4.76287 0.371094 3.89806 0.374234 3.72995 0.388588C3.12313 0.440516 2.74553 0.538877 2.33414 0.749721C2.01712 0.91179 1.76708 1.09965 1.52032 1.36299C1.07092 1.84323 0.798559 2.43406 0.699962 3.13637C0.652028 3.47732 0.638081 3.54685 0.635249 5.28839C0.634162 5.8689 0.635249 6.6329 0.635249 7.65765C0.635249 10.6993 0.638515 11.5887 0.652681 11.7614C0.701707 12.3693 0.794308 12.7517 0.990412 13.17C1.36519 13.9708 2.08095 14.572 2.92419 14.7963C3.21617 14.8737 3.53865 14.9163 3.95264 14.9365C4.12805 14.9443 5.91584 14.9499 7.70472 14.9499C9.49361 14.9499 11.2825 14.9477 11.4535 14.9387C11.9329 14.9155 12.2113 14.877 12.519 14.7952C13.3677 14.5697 14.0704 13.9776 14.4528 13.1656C14.6451 12.7573 14.7426 12.3603 14.7867 11.7841C14.7963 11.6585 14.8003 9.65579 14.8003 7.65575C14.8003 5.65536 14.796 3.65632 14.7864 3.5307C14.7417 2.94526 14.6442 2.5516 14.4457 2.1355C14.2829 1.79489 14.102 1.54052 13.8395 1.28044C13.3709 0.81971 12.7978 0.539323 12.115 0.437937C11.7841 0.388699 11.7182 0.374119 10.0252 0.371094H7.71987Z" fill="url(#paint3_radial_229_17008)"/>
<path d="M7.71818 2.55859C6.37167 2.55859 6.20269 2.56465 5.67383 2.58942C5.14601 2.6143 4.78573 2.7003 4.47048 2.82648C4.14439 2.95681 3.86777 3.13115 3.59219 3.41487C3.31641 3.6985 3.14701 3.98317 3.01996 4.31867C2.89704 4.64322 2.81337 5.01411 2.78962 5.55711C2.76596 6.10139 2.75977 6.27541 2.75977 7.66119C2.75977 9.04697 2.76576 9.22035 2.78972 9.76462C2.814 10.3078 2.89756 10.6786 3.02006 11.0031C3.1468 11.3387 3.3162 11.6233 3.59188 11.907C3.86737 12.1908 4.14398 12.3656 4.46986 12.4959C4.78531 12.6221 5.1457 12.7081 5.67342 12.733C6.20228 12.7577 6.37115 12.7638 7.71756 12.7638C9.06418 12.7638 9.23265 12.7577 9.7615 12.733C10.2893 12.7081 10.65 12.6221 10.9655 12.4959C11.2915 12.3656 11.5677 12.1908 11.8431 11.907C12.1189 11.6233 12.2883 11.3387 12.4154 11.0032C12.5373 10.6786 12.6209 10.3077 12.6457 9.76473C12.6695 9.22046 12.6757 9.04697 12.6757 7.66119C12.6757 6.2754 12.6695 6.1015 12.6457 5.55722C12.6209 5.014 12.5373 4.64322 12.4154 4.31878C12.2883 3.98317 12.1189 3.69849 11.8431 3.41487C11.5674 3.13104 11.2916 2.9567 10.9652 2.82648C10.6491 2.7003 10.2886 2.6143 9.76078 2.58942C9.23192 2.56465 9.06356 2.55859 7.71664 2.55859H7.71818ZM7.27341 3.47813C7.40542 3.47791 7.55271 3.47813 7.71818 3.47813C9.04197 3.47813 9.19887 3.48302 9.72163 3.50746C10.205 3.53022 10.4674 3.61334 10.6422 3.68318C10.8735 3.77567 11.0385 3.88623 11.2119 4.06481C11.3855 4.24341 11.4929 4.41349 11.583 4.65161C11.6508 4.83126 11.7317 5.10128 11.7537 5.59878C11.7774 6.13668 11.7826 6.29826 11.7826 7.66002C11.7826 9.02177 11.7774 9.18336 11.7537 9.72125C11.7316 10.2188 11.6508 10.4888 11.583 10.6684C11.4931 10.9065 11.3855 11.0761 11.2119 11.2546C11.0384 11.4332 10.8736 11.5437 10.6422 11.6362C10.4676 11.7064 10.205 11.7893 9.72163 11.812C9.19898 11.8365 9.04197 11.8418 7.71818 11.8418C6.39429 11.8418 6.23739 11.8365 5.71474 11.812C5.23133 11.7891 4.96897 11.7059 4.7941 11.6361C4.56272 11.5436 4.39745 11.4331 4.22393 11.2545C4.0504 11.0759 3.94298 10.9062 3.8529 10.668C3.78504 10.4883 3.70416 10.2183 3.68216 9.72083C3.6584 9.18293 3.65365 9.02135 3.65365 7.65874C3.65365 6.29614 3.6584 6.1354 3.68216 5.59751C3.70427 5.1 3.78504 4.82999 3.8529 4.65013C3.94276 4.412 4.0504 4.24192 4.22393 4.06333C4.39745 3.88474 4.56272 3.77418 4.7941 3.68149C4.96887 3.61132 5.23133 3.52841 5.71474 3.50555C6.17211 3.48429 6.34936 3.47791 7.27341 3.47684L7.27341 3.47813ZM10.3647 4.32537C10.0363 4.32537 9.76976 4.59931 9.76976 4.93746C9.76976 5.27551 10.0363 5.54978 10.3647 5.54978C10.6932 5.54978 10.9597 5.27551 10.9597 4.93746C10.9597 4.59942 10.6932 4.32516 10.3647 4.32516L10.3647 4.32537ZM7.71818 5.04079C6.31207 5.04079 5.17204 6.21407 5.17204 7.66119C5.17204 9.1083 6.31207 10.281 7.71818 10.281C9.12429 10.281 10.2639 9.1083 10.2639 7.66119C10.2639 6.21407 9.12419 5.04079 7.71808 5.04079H7.71818ZM7.71818 5.96032C8.63087 5.96032 9.37085 6.72178 9.37085 7.66119C9.37085 8.60049 8.63087 9.36205 7.71818 9.36205C6.8054 9.36205 6.06552 8.60049 6.06552 7.66119C6.06552 6.72178 6.8054 5.96032 7.71818 5.96032Z" fill="white"/>
<defs>
<radialGradient id="paint0_radial_229_17008" cx="0" cy="0" r="1" gradientUnits="userSpaceOnUse" gradientTransform="translate(14.3429 7.20438) rotate(163.815) scale(9.07072 6.69646)">
<stop stop-color="#FF005F"/>
<stop offset="1" stop-color="#FC01D8"/>
</radialGradient>
<radialGradient id="paint1_radial_229_17008" cx="0" cy="0" r="1" gradientUnits="userSpaceOnUse" gradientTransform="translate(4.39739 16.0728) rotate(-90) scale(11.6371 11.9967)">
<stop stop-color="#FFCC00"/>
<stop offset="0.1242" stop-color="#FFCC00"/>
<stop offset="0.5672" stop-color="#FE4A05"/>
<stop offset="0.6942" stop-color="#FF0F3F"/>
<stop offset="1" stop-color="#FE0657" stop-opacity="0"/>
</radialGradient>
<radialGradient id="paint2_radial_229_17008" cx="0" cy="0" r="1" gradientUnits="userSpaceOnUse" gradientTransform="translate(8.07551 14.7443) rotate(-60.5804) scale(4.77804 6.13048)">
<stop stop-color="#FFCC00"/>
<stop offset="1" stop-color="#FFCC00" stop-opacity="0"/>
</radialGradient>
<radialGradient id="paint3_radial_229_17008" cx="0" cy="0" r="1" gradientUnits="userSpaceOnUse" gradientTransform="translate(2.55673 0.96474) rotate(163.839) scale(8.97005 3.13163)">
<stop stop-color="#780CFF"/>
<stop offset="1" stop-color="#820BFF" stop-opacity="0"/>
</radialGradient>
</defs>
</svg>
