<svg width="213" height="75" viewBox="0 0 213 75" fill="none" xmlns="http://www.w3.org/2000/svg">
<rect width="75" height="75" rx="37.5" fill="#1A1A1A"/>
<g clip-path="url(#clip0_229_15242)">
<g clip-path="url(#clip1_229_15242)">
<path d="M50.0002 24.7305V32.056C50.0002 36.6789 47.4806 40.7116 43.75 42.8349V28.1365L50.0002 24.7305Z" fill="#E158A2"/>
<path d="M43.7272 21.0173L37.5005 24.7321V32.6698L31.2503 28.9385L25 32.6698V31.6903C25 24.8545 30.506 19.3125 37.2954 19.3125H38.067C39.0236 19.3564 41.1022 19.6304 43.7272 21.0173Z" fill="white"/>
<path d="M44.431 21.4085C44.1932 21.2678 43.9572 21.1362 43.7267 21.0156L37.5 24.7304L43.7502 28.1364L50.0006 24.7304L44.431 21.4085Z" fill="#F060A2"/>
<path d="M31.2504 36.074V52.0568L25.002 48.4352V32.668L31.2504 36.074Z" fill="#A335AA"/>
<path d="M37.5003 32.668V55.6785L31.25 52.0568V36.074L37.5003 32.668Z" fill="#8D27AA"/>
<path d="M43.7502 28.1365V42.8349C41.9657 43.8526 39.9017 44.4337 37.7032 44.4337H37.5V24.7305L43.7502 28.1365Z" fill="#C246A6"/>
<path d="M31.931 29.3304C31.6932 29.1897 31.4572 29.0581 31.2267 28.9375L25 32.6523L31.2503 36.0583L37.5005 32.6523L31.931 29.3304Z" fill="#B03CA8"/>
</g>
</g>
<path d="M85.9572 42.5V32.7955H89.5964C90.3419 32.7955 90.9674 32.9345 91.4729 33.2124C91.9815 33.4904 92.3653 33.8727 92.6243 34.3592C92.8865 34.8425 93.0176 35.3922 93.0176 36.0082C93.0176 36.6305 92.8865 37.1833 92.6243 37.6667C92.3621 38.15 91.9751 38.5307 91.4634 38.8087C90.9516 39.0835 90.3214 39.2209 89.5727 39.2209H87.1608V37.7757H89.3358C89.7717 37.7757 90.1287 37.6999 90.4067 37.5482C90.6847 37.3966 90.89 37.1881 91.0227 36.9227C91.1585 36.6574 91.2265 36.3525 91.2265 36.0082C91.2265 35.6639 91.1585 35.3606 91.0227 35.0984C90.89 34.8362 90.6831 34.6324 90.4019 34.4871C90.1239 34.3386 89.7654 34.2644 89.3263 34.2644H87.7152V42.5H85.9572ZM94.4688 42.5V35.2216H96.132V36.4347H96.2078C96.3405 36.0145 96.568 35.6907 96.8902 35.4633C97.2156 35.2326 97.5868 35.1173 98.0038 35.1173C98.0985 35.1173 98.2044 35.1221 98.3212 35.1316C98.4413 35.1379 98.5408 35.1489 98.6198 35.1647V36.7427C98.5471 36.7174 98.4318 36.6953 98.2739 36.6763C98.1191 36.6542 97.969 36.6432 97.8237 36.6432C97.511 36.6432 97.2298 36.7111 96.9802 36.8469C96.7338 36.9796 96.5395 37.1644 96.3974 37.4013C96.2552 37.6383 96.1842 37.9115 96.1842 38.2211V42.5H94.4688ZM102.635 42.6422C101.924 42.6422 101.308 42.4858 100.786 42.173C100.265 41.8603 99.8609 41.4228 99.5734 40.8605C99.2891 40.2982 99.1469 39.6411 99.1469 38.8892C99.1469 38.1374 99.2891 37.4787 99.5734 36.9133C99.8609 36.3478 100.265 35.9087 100.786 35.5959C101.308 35.2832 101.924 35.1268 102.635 35.1268C103.345 35.1268 103.961 35.2832 104.483 35.5959C105.004 35.9087 105.407 36.3478 105.691 36.9133C105.978 37.4787 106.122 38.1374 106.122 38.8892C106.122 39.6411 105.978 40.2982 105.691 40.8605C105.407 41.4228 105.004 41.8603 104.483 42.173C103.961 42.4858 103.345 42.6422 102.635 42.6422ZM102.644 41.268C103.029 41.268 103.352 41.1622 103.611 40.9505C103.87 40.7357 104.062 40.4482 104.189 40.0881C104.318 39.7279 104.383 39.3268 104.383 38.8845C104.383 38.4391 104.318 38.0363 104.189 37.6762C104.062 37.3129 103.87 37.0238 103.611 36.809C103.352 36.5942 103.029 36.4868 102.644 36.4868C102.249 36.4868 101.921 36.5942 101.658 36.809C101.399 37.0238 101.205 37.3129 101.076 37.6762C100.949 38.0363 100.886 38.4391 100.886 38.8845C100.886 39.3268 100.949 39.7279 101.076 40.0881C101.205 40.4482 101.399 40.7357 101.658 40.9505C101.921 41.1622 102.249 41.268 102.644 41.268ZM107.578 45.2294V35.2216H109.265V36.4252H109.364C109.453 36.2483 109.578 36.0603 109.739 35.8613C109.9 35.6591 110.118 35.4869 110.393 35.3448C110.668 35.1995 111.018 35.1268 111.445 35.1268C112.007 35.1268 112.514 35.2706 112.966 35.558C113.421 35.8423 113.781 36.2641 114.046 36.8232C114.315 37.3792 114.449 38.0616 114.449 38.8703C114.449 39.6695 114.318 40.3487 114.056 40.9078C113.793 41.467 113.436 41.8935 112.985 42.1873C112.533 42.481 112.021 42.6279 111.449 42.6279C111.032 42.6279 110.686 42.5584 110.412 42.4194C110.137 42.2804 109.916 42.113 109.748 41.9172C109.584 41.7181 109.456 41.5302 109.364 41.3533H109.293V45.2294H107.578ZM109.26 38.8608C109.26 39.3315 109.327 39.7437 109.459 40.0976C109.595 40.4514 109.789 40.7278 110.042 40.9268C110.298 41.1227 110.608 41.2206 110.971 41.2206C111.35 41.2206 111.667 41.1195 111.923 40.9173C112.179 40.712 112.372 40.4324 112.501 40.0786C112.634 39.7216 112.7 39.3157 112.7 38.8608C112.7 38.4091 112.636 38.0079 112.506 37.6572C112.377 37.3066 112.184 37.0317 111.928 36.8327C111.672 36.6337 111.353 36.5342 110.971 36.5342C110.604 36.5342 110.293 36.6305 110.037 36.8232C109.781 37.0159 109.587 37.286 109.454 37.6335C109.325 37.981 109.26 38.3901 109.26 38.8608ZM119.604 35.2216V36.5484H115.302V35.2216H119.604ZM116.377 42.5V34.5345C116.377 34.0449 116.479 33.6373 116.681 33.312C116.886 32.9866 117.161 32.7433 117.505 32.5822C117.85 32.4211 118.232 32.3406 118.652 32.3406C118.949 32.3406 119.213 32.3642 119.443 32.4116C119.674 32.459 119.845 32.5017 119.955 32.5396L119.614 33.8664C119.541 33.8443 119.45 33.8221 119.339 33.8C119.229 33.7748 119.105 33.7621 118.969 33.7621C118.65 33.7621 118.425 33.8395 118.292 33.9943C118.162 34.1459 118.098 34.3639 118.098 34.6482V42.5H116.377ZM120.948 42.5V35.2216H122.663V42.5H120.948ZM121.81 34.1886C121.539 34.1886 121.305 34.0986 121.109 33.9185C120.913 33.7353 120.815 33.5157 120.815 33.2598C120.815 33.0008 120.913 32.7812 121.109 32.6012C121.305 32.4179 121.539 32.3263 121.81 32.3263C122.085 32.3263 122.319 32.4179 122.512 32.6012C122.707 32.7812 122.805 33.0008 122.805 33.2598C122.805 33.5157 122.707 33.7353 122.512 33.9185C122.319 34.0986 122.085 34.1886 121.81 34.1886ZM124.427 42.5V35.2216H126.09V36.4347H126.166C126.299 36.0145 126.526 35.6907 126.848 35.4633C127.174 35.2326 127.545 35.1173 127.962 35.1173C128.057 35.1173 128.163 35.1221 128.28 35.1316C128.4 35.1379 128.499 35.1489 128.578 35.1647V36.7427C128.505 36.7174 128.39 36.6953 128.232 36.6763C128.077 36.6542 127.927 36.6432 127.782 36.6432C127.469 36.6432 127.188 36.7111 126.939 36.8469C126.692 36.9796 126.498 37.1644 126.356 37.4013C126.214 37.6383 126.142 37.9115 126.142 38.2211V42.5H124.427ZM129.718 42.5V35.2216H131.357V36.4584H131.443C131.594 36.0414 131.845 35.716 132.196 35.4822C132.547 35.2453 132.965 35.1268 133.452 35.1268C133.944 35.1268 134.36 35.2469 134.698 35.4869C135.039 35.7239 135.279 36.0477 135.418 36.4584H135.494C135.655 36.054 135.927 35.7318 136.309 35.4917C136.694 35.2484 137.151 35.1268 137.678 35.1268C138.348 35.1268 138.895 35.3385 139.318 35.7618C139.741 36.1851 139.953 36.8027 139.953 37.6146V42.5H138.233V37.8799C138.233 37.4282 138.113 37.0981 137.873 36.8896C137.633 36.6779 137.339 36.5721 136.991 36.5721C136.578 36.5721 136.254 36.7016 136.02 36.9606C135.789 37.2165 135.674 37.5498 135.674 37.9605V42.5H133.992V37.8088C133.992 37.4329 133.878 37.1328 133.651 36.9085C133.426 36.6842 133.133 36.5721 132.769 36.5721C132.523 36.5721 132.299 36.6353 132.096 36.7616C131.894 36.8848 131.733 37.0601 131.613 37.2876C131.493 37.5119 131.433 37.7741 131.433 38.0742V42.5H129.718ZM141.693 42.5V35.2216H143.333V36.4584H143.418C143.57 36.0414 143.821 35.716 144.171 35.4822C144.522 35.2453 144.941 35.1268 145.427 35.1268C145.92 35.1268 146.335 35.2469 146.673 35.4869C147.015 35.7239 147.255 36.0477 147.394 36.4584H147.469C147.631 36.054 147.902 35.7318 148.284 35.4917C148.67 35.2484 149.126 35.1268 149.654 35.1268C150.324 35.1268 150.87 35.3385 151.293 35.7618C151.717 36.1851 151.928 36.8027 151.928 37.6146V42.5H150.208V37.8799C150.208 37.4282 150.088 37.0981 149.848 36.8896C149.608 36.6779 149.314 36.5721 148.967 36.5721C148.553 36.5721 148.229 36.7016 147.995 36.9606C147.765 37.2165 147.65 37.5498 147.65 37.9605V42.5H145.967V37.8088C145.967 37.4329 145.854 37.1328 145.626 36.9085C145.402 36.6842 145.108 36.5721 144.745 36.5721C144.498 36.5721 144.274 36.6353 144.072 36.7616C143.87 36.8848 143.709 37.0601 143.589 37.2876C143.469 37.5119 143.409 37.7741 143.409 38.0742V42.5H141.693ZM155.763 42.6469C155.302 42.6469 154.886 42.5648 154.517 42.4005C154.15 42.2331 153.86 41.9867 153.645 41.6613C153.433 41.3359 153.327 40.9347 153.327 40.4577C153.327 40.047 153.403 39.7074 153.555 39.4389C153.707 39.1704 153.913 38.9556 154.176 38.7945C154.438 38.6333 154.733 38.5117 155.062 38.4296C155.393 38.3443 155.736 38.2827 156.09 38.2448C156.517 38.2006 156.862 38.1611 157.128 38.1263C157.393 38.0884 157.586 38.0315 157.706 37.9557C157.829 37.8768 157.891 37.7551 157.891 37.5909V37.5624C157.891 37.2055 157.785 36.929 157.573 36.7332C157.362 36.5373 157.057 36.4394 156.659 36.4394C156.239 36.4394 155.905 36.531 155.659 36.7142C155.416 36.8975 155.251 37.1139 155.166 37.3634L153.564 37.136C153.691 36.6937 153.899 36.3241 154.19 36.0271C154.481 35.727 154.836 35.5027 155.256 35.3543C155.676 35.2026 156.141 35.1268 156.649 35.1268C157 35.1268 157.349 35.1679 157.696 35.25C158.044 35.3322 158.361 35.468 158.649 35.6575C158.936 35.8439 159.167 36.0982 159.341 36.4204C159.518 36.7427 159.606 37.1454 159.606 37.6288V42.5H157.957V41.5002H157.9C157.796 41.7023 157.649 41.8919 157.46 42.0688C157.273 42.2425 157.038 42.3831 156.753 42.4905C156.472 42.5948 156.142 42.6469 155.763 42.6469ZM156.209 41.3864C156.553 41.3864 156.851 41.3185 157.104 41.1827C157.357 41.0437 157.551 40.8605 157.687 40.633C157.826 40.4056 157.895 40.1576 157.895 39.8891V39.0314C157.842 39.0756 157.75 39.1167 157.621 39.1546C157.494 39.1925 157.352 39.2257 157.194 39.2541C157.036 39.2825 156.88 39.3078 156.725 39.3299C156.57 39.352 156.436 39.371 156.322 39.3868C156.066 39.4215 155.837 39.4784 155.635 39.5574C155.433 39.6363 155.273 39.7469 155.157 39.8891C155.04 40.0281 154.981 40.2081 154.981 40.4293C154.981 40.7452 155.097 40.9837 155.327 41.1448C155.558 41.3059 155.852 41.3864 156.209 41.3864ZM164.965 35.2216V36.5484H160.781V35.2216H164.965ZM161.814 33.4778H163.53V40.3108C163.53 40.5414 163.564 40.7183 163.634 40.8415C163.706 40.9616 163.801 41.0437 163.918 41.0879C164.035 41.1321 164.165 41.1543 164.307 41.1543C164.414 41.1543 164.512 41.1464 164.6 41.1306C164.692 41.1148 164.762 41.1005 164.809 41.0879L165.098 42.4289C165.006 42.4605 164.875 42.4953 164.705 42.5332C164.537 42.5711 164.332 42.5932 164.089 42.5995C163.659 42.6121 163.272 42.5474 162.928 42.4052C162.583 42.2599 162.31 42.0356 162.108 41.7324C161.909 41.4291 161.811 41.05 161.814 40.5951V33.4778ZM169.497 42.6422C168.77 42.6422 168.146 42.4826 167.625 42.1636C167.107 41.8445 166.707 41.4038 166.426 40.8415C166.148 40.276 166.009 39.6253 166.009 38.8892C166.009 38.15 166.151 37.4977 166.435 36.9322C166.72 36.3636 167.121 35.9213 167.639 35.6054C168.16 35.2864 168.776 35.1268 169.487 35.1268C170.078 35.1268 170.601 35.2358 171.056 35.4538C171.514 35.6686 171.879 35.9734 172.15 36.3683C172.422 36.76 172.577 37.2181 172.615 37.7425H170.975C170.909 37.3918 170.751 37.0996 170.501 36.8659C170.255 36.6289 169.925 36.5105 169.511 36.5105C169.16 36.5105 168.852 36.6052 168.587 36.7948C168.321 36.9812 168.115 37.2497 167.966 37.6003C167.821 37.951 167.748 38.3711 167.748 38.8608C167.748 39.3568 167.821 39.7832 167.966 40.1402C168.111 40.494 168.315 40.7673 168.577 40.96C168.843 41.1495 169.154 41.2443 169.511 41.2443C169.764 41.2443 169.989 41.1969 170.188 41.1021C170.391 41.0042 170.56 40.8636 170.695 40.6804C170.831 40.4972 170.924 40.2745 170.975 40.0123H172.615C172.573 40.5272 172.422 40.9837 172.16 41.3817C171.897 41.7766 171.54 42.0862 171.089 42.3105C170.637 42.5316 170.106 42.6422 169.497 42.6422ZM175.738 38.2353V42.5H174.023V32.7955H175.701V36.4584H175.786C175.956 36.0477 176.22 35.7239 176.577 35.4869C176.937 35.2469 177.395 35.1268 177.951 35.1268C178.457 35.1268 178.897 35.2326 179.273 35.4443C179.649 35.656 179.94 35.9655 180.145 36.3731C180.354 36.7806 180.458 37.2781 180.458 37.8657V42.5H178.743V38.1311C178.743 37.6414 178.616 37.2607 178.364 36.9891C178.114 36.7142 177.763 36.5768 177.312 36.5768C177.008 36.5768 176.737 36.6432 176.497 36.7758C176.26 36.9054 176.073 37.0933 175.937 37.3397C175.805 37.5861 175.738 37.8847 175.738 38.2353ZM183.263 42.6042C182.976 42.6042 182.729 42.5032 182.524 42.301C182.319 42.0988 182.218 41.8524 182.221 41.5618C182.218 41.2775 182.319 41.0342 182.524 40.832C182.729 40.6299 182.976 40.5288 183.263 40.5288C183.541 40.5288 183.783 40.6299 183.988 40.832C184.197 41.0342 184.303 41.2775 184.306 41.5618C184.303 41.7545 184.252 41.9298 184.154 42.0877C184.059 42.2457 183.933 42.3721 183.775 42.4668C183.62 42.5584 183.45 42.6042 183.263 42.6042ZM189.252 42.6422C188.525 42.6422 187.901 42.4826 187.38 42.1636C186.862 41.8445 186.462 41.4038 186.181 40.8415C185.903 40.276 185.764 39.6253 185.764 38.8892C185.764 38.15 185.906 37.4977 186.19 36.9322C186.475 36.3636 186.876 35.9213 187.394 35.6054C187.915 35.2864 188.531 35.1268 189.242 35.1268C189.833 35.1268 190.356 35.2358 190.811 35.4538C191.269 35.6686 191.634 35.9734 191.905 36.3683C192.177 36.76 192.332 37.2181 192.37 37.7425H190.73C190.664 37.3918 190.506 37.0996 190.256 36.8659C190.01 36.6289 189.68 36.5105 189.266 36.5105C188.915 36.5105 188.607 36.6052 188.342 36.7948C188.076 36.9812 187.87 37.2497 187.721 37.6003C187.576 37.951 187.503 38.3711 187.503 38.8608C187.503 39.3568 187.576 39.7832 187.721 40.1402C187.866 40.494 188.07 40.7673 188.332 40.96C188.598 41.1495 188.909 41.2443 189.266 41.2443C189.519 41.2443 189.744 41.1969 189.943 41.1021C190.146 41.0042 190.315 40.8636 190.45 40.6804C190.586 40.4972 190.679 40.2745 190.73 40.0123H192.37C192.328 40.5272 192.177 40.9837 191.915 41.3817C191.652 41.7766 191.295 42.0862 190.844 42.3105C190.392 42.5316 189.861 42.6422 189.252 42.6422ZM196.953 42.6422C196.242 42.6422 195.626 42.4858 195.105 42.173C194.584 41.8603 194.179 41.4228 193.892 40.8605C193.608 40.2982 193.465 39.6411 193.465 38.8892C193.465 38.1374 193.608 37.4787 193.892 36.9133C194.179 36.3478 194.584 35.9087 195.105 35.5959C195.626 35.2832 196.242 35.1268 196.953 35.1268C197.664 35.1268 198.28 35.2832 198.801 35.5959C199.322 35.9087 199.725 36.3478 200.009 36.9133C200.297 37.4787 200.44 38.1374 200.44 38.8892C200.44 39.6411 200.297 40.2982 200.009 40.8605C199.725 41.4228 199.322 41.8603 198.801 42.173C198.28 42.4858 197.664 42.6422 196.953 42.6422ZM196.962 41.268C197.348 41.268 197.67 41.1622 197.929 40.9505C198.188 40.7357 198.381 40.4482 198.507 40.0881C198.637 39.7279 198.701 39.3268 198.701 38.8845C198.701 38.4391 198.637 38.0363 198.507 37.6762C198.381 37.3129 198.188 37.0238 197.929 36.809C197.67 36.5942 197.348 36.4868 196.962 36.4868C196.568 36.4868 196.239 36.5942 195.977 36.809C195.718 37.0238 195.523 37.3129 195.394 37.6762C195.268 38.0363 195.204 38.4391 195.204 38.8845C195.204 39.3268 195.268 39.7279 195.394 40.0881C195.523 40.4482 195.718 40.7357 195.977 40.9505C196.239 41.1622 196.568 41.268 196.962 41.268ZM201.896 42.5V35.2216H203.536V36.4584H203.621C203.773 36.0414 204.024 35.716 204.375 35.4822C204.725 35.2453 205.144 35.1268 205.63 35.1268C206.123 35.1268 206.539 35.2469 206.877 35.4869C207.218 35.7239 207.458 36.0477 207.597 36.4584H207.673C207.834 36.054 208.105 35.7318 208.488 35.4917C208.873 35.2484 209.33 35.1268 209.857 35.1268C210.527 35.1268 211.073 35.3385 211.497 35.7618C211.92 36.1851 212.132 36.8027 212.132 37.6146V42.5H210.412V37.8799C210.412 37.4282 210.292 37.0981 210.051 36.8896C209.811 36.6779 209.518 36.5721 209.17 36.5721C208.756 36.5721 208.432 36.7016 208.199 36.9606C207.968 37.2165 207.853 37.5498 207.853 37.9605V42.5H206.171V37.8088C206.171 37.4329 206.057 37.1328 205.829 36.9085C205.605 36.6842 205.311 36.5721 204.948 36.5721C204.702 36.5721 204.477 36.6353 204.275 36.7616C204.073 36.8848 203.912 37.0601 203.792 37.2876C203.672 37.5119 203.612 37.7741 203.612 38.0742V42.5H201.896Z" fill="#1A1A1A"/>
<defs>
<clipPath id="clip0_229_15242">
<rect width="25" height="44" fill="white" transform="translate(25 15.5)"/>
</clipPath>
<clipPath id="clip1_229_15242">
<rect width="25" height="36.375" fill="white" transform="translate(25 19.3125)"/>
</clipPath>
</defs>
</svg>
