<svg width="15" height="15" viewBox="0 0 15 15" fill="none" xmlns="http://www.w3.org/2000/svg">
<path fill-rule="evenodd" clip-rule="evenodd" d="M0.21875 7.66052V14.9499L7.29915 14.9475L14.3796 14.945L14.3819 7.65805L14.3843 0.371094H7.30155H0.21875V7.66052ZM0.223494 7.66542C0.223494 11.6746 0.224582 13.3147 0.225909 11.3101C0.227236 9.30554 0.227236 6.0253 0.225909 4.02072C0.224582 2.01612 0.223494 3.65625 0.223494 7.66542ZM3.12338 3.34732C3.15189 3.38922 3.81221 4.37904 4.59077 5.54692C5.36932 6.7148 6.08941 7.79484 6.19097 7.94702C6.29253 8.0992 6.37562 8.22676 6.37562 8.2305C6.37562 8.23423 6.3378 8.28226 6.29158 8.33721C6.24536 8.39216 6.11517 8.54772 6.00228 8.68289C5.88939 8.81807 5.69908 9.04589 5.57937 9.18917C5.45967 9.33245 5.24907 9.58461 5.11138 9.74952C4.9737 9.91443 4.72609 10.2109 4.56116 10.4084C4.05103 11.0191 3.97742 11.1073 3.5891 11.5731C3.38175 11.8218 3.18292 12.0596 3.14725 12.1016C3.11159 12.1435 3.08241 12.1822 3.08241 12.1876C3.08241 12.1939 3.21265 12.1973 3.44935 12.1973H3.81628L4.21968 11.7132C4.44156 11.4469 4.66043 11.1848 4.70606 11.1307C4.80473 11.0138 5.5572 10.1121 5.62045 10.035C5.64467 10.0055 5.67985 9.96345 5.69862 9.94161C5.71741 9.91976 5.86545 9.74264 6.02761 9.54799C6.18976 9.35334 6.32689 9.18932 6.33232 9.18349C6.33776 9.17767 6.4236 9.07481 6.52309 8.95493C6.62257 8.83505 6.70704 8.73696 6.71079 8.73696C6.71455 8.73696 7.22558 9.49896 7.84643 10.4303C8.46728 11.3616 8.98632 12.1401 8.99988 12.1603L9.02451 12.1969L10.2832 12.1971C11.3182 12.1973 11.5409 12.1951 11.537 12.1844C11.5328 12.1732 10.9298 11.2673 9.3827 8.94832C8.269 7.27892 8.12091 7.05459 8.12515 7.0432C8.12928 7.03213 8.28098 6.84941 9.27827 5.65424C9.44935 5.44923 9.68517 5.16648 9.80232 5.0259C9.91948 4.88532 10.0378 4.74376 10.0652 4.71132C10.0926 4.67888 10.2368 4.50635 10.3855 4.32792C10.5343 4.1495 10.7872 3.84632 10.9475 3.6542C11.1079 3.46208 11.245 3.2973 11.2522 3.28801C11.2645 3.27211 11.2435 3.27113 10.8926 3.27113H10.5199L10.3541 3.4702C10.1335 3.73514 9.73464 4.2129 9.62139 4.3479C9.57136 4.40755 9.50894 4.48252 9.48269 4.51449C9.45644 4.54646 9.40465 4.60824 9.3676 4.65179C9.33055 4.69534 9.14385 4.91899 8.9527 5.14878C8.76157 5.37857 8.60256 5.5688 8.59935 5.5715C8.59615 5.5742 8.55519 5.62313 8.50833 5.68023C8.42637 5.78011 8.34296 5.88009 7.96044 6.33696C7.79253 6.53751 7.78392 6.54612 7.76976 6.52769C7.76162 6.51707 7.26956 5.78004 6.6763 4.88985L5.59766 3.27134L4.3346 3.27123L3.07155 3.27113L3.12338 3.34732ZM4.10918 3.87809C4.11866 3.89301 4.35465 4.24141 4.6336 4.65233C5.16264 5.43167 7.24156 8.49597 8.57855 10.4672C9.00579 11.0971 9.36056 11.618 9.36693 11.6248C9.37604 11.6345 9.50044 11.6366 9.9482 11.6346L10.5179 11.6321L9.02714 9.43494C8.20723 8.22651 7.02013 6.4769 6.38916 5.54692L5.24192 3.85605L4.66693 3.85352L4.09195 3.85098L4.10918 3.87809Z" fill="#040404"/>
</svg>
