<svg width="20" height="15" viewBox="0 0 20 15" fill="none" xmlns="http://www.w3.org/2000/svg">
<path d="M19.4702 2.64758C19.2421 1.75152 18.5701 1.04583 17.7168 0.806339C16.1703 0.371094 9.96864 0.371094 9.96864 0.371094C9.96864 0.371094 3.76707 0.371094 2.22052 0.806339C1.36713 1.04583 0.695017 1.75152 0.467091 2.64758C0.0527344 4.27172 0.0527344 7.66049 0.0527344 7.66049C0.0527344 7.66049 0.0527344 11.0491 0.467091 12.6734C0.695017 13.5695 1.36713 14.2751 2.22043 14.5148C3.76698 14.9499 9.96856 14.9499 9.96856 14.9499C9.96856 14.9499 16.1702 14.9499 17.7167 14.5148C18.5701 14.2751 19.242 13.5695 19.4701 12.6735C19.8845 11.0492 19.8845 7.66057 19.8845 7.66057C19.8845 7.66057 19.8845 4.27182 19.4701 2.64766" fill="#FF0000"/>
<path d="M7.13574 9.34279C7.13574 9.89057 7.72904 10.2327 8.20311 9.95823L11.7389 7.91145C12.212 7.63757 12.212 6.95451 11.7389 6.6806L8.20314 4.63359C7.72907 4.35913 7.13574 4.70121 7.13574 5.249V9.34279Z" fill="white"/>
</svg>
