<svg width="147" height="117" viewBox="0 0 147 117" fill="none" xmlns="http://www.w3.org/2000/svg">
<path fill-rule="evenodd" clip-rule="evenodd" d="M85.8497 0C118.126 0 147 21.3881 147 50.9863C147 84.8122 122.736 117 85.8497 117C42.0968 117 0 91.1094 0 50.9863C0 14.3568 45.9065 0 85.8497 0Z" fill="#FF0000"/>
<path d="M30.7841 17.2727H31.8409V23.0511C31.8409 23.6477 31.7003 24.1804 31.419 24.6491C31.1406 25.1151 30.7472 25.483 30.2386 25.7528C29.7301 26.0199 29.1335 26.1534 28.4489 26.1534C27.7642 26.1534 27.1676 26.0199 26.6591 25.7528C26.1506 25.483 25.7557 25.1151 25.4744 24.6491C25.196 24.1804 25.0568 23.6477 25.0568 23.0511V17.2727H26.1136V22.9659C26.1136 23.392 26.2074 23.7713 26.3949 24.1037C26.5824 24.4332 26.8494 24.6932 27.196 24.8835C27.5455 25.071 27.9631 25.1648 28.4489 25.1648C28.9347 25.1648 29.3523 25.071 29.7017 24.8835C30.0511 24.6932 30.3182 24.4332 30.5028 24.1037C30.6903 23.7713 30.7841 23.392 30.7841 22.9659V17.2727ZM33.815 28.4545V19.4545H34.7866V20.4943H34.9059C34.9798 20.3807 35.082 20.2358 35.2127 20.0597C35.3462 19.8807 35.5366 19.7216 35.7837 19.5824C36.0337 19.4403 36.3718 19.3693 36.7979 19.3693C37.3491 19.3693 37.8349 19.5071 38.2553 19.7827C38.6758 20.0582 39.0039 20.4489 39.2397 20.9545C39.4755 21.4602 39.5934 22.0568 39.5934 22.7443C39.5934 23.4375 39.4755 24.0384 39.2397 24.5469C39.0039 25.0526 38.6772 25.4446 38.2596 25.723C37.842 25.9986 37.3604 26.1364 36.815 26.1364C36.3945 26.1364 36.0579 26.0668 35.805 25.9276C35.5522 25.7855 35.3576 25.625 35.2212 25.446C35.0849 25.2642 34.9798 25.1136 34.9059 24.9943H34.8207V28.4545H33.815ZM34.8036 22.7273C34.8036 23.2216 34.8761 23.6577 35.021 24.0355C35.1658 24.4105 35.3775 24.7045 35.6559 24.9176C35.9343 25.1278 36.2752 25.233 36.6786 25.233C37.0991 25.233 37.4499 25.1222 37.7312 24.9006C38.0153 24.6761 38.2283 24.375 38.3704 23.9972C38.5153 23.6165 38.5877 23.1932 38.5877 22.7273C38.5877 22.267 38.5167 21.8523 38.3746 21.483C38.2354 21.1108 38.0238 20.8168 37.7397 20.6009C37.4585 20.3821 37.1048 20.2727 36.6786 20.2727C36.2695 20.2727 35.9258 20.3764 35.6474 20.5838C35.369 20.7884 35.1587 21.0753 35.0167 21.4446C34.8746 21.8111 34.8036 22.2386 34.8036 22.7273ZM43.9741 19.4545V20.3068H40.582V19.4545H43.9741ZM41.5707 17.8864H42.5763V24.125C42.5763 24.4091 42.6175 24.6222 42.6999 24.7642C42.7852 24.9034 42.8931 24.9972 43.0238 25.0455C43.1573 25.0909 43.2979 25.1136 43.4457 25.1136C43.5565 25.1136 43.6474 25.108 43.7184 25.0966C43.7894 25.0824 43.8462 25.071 43.8888 25.0625L44.0934 25.9659C44.0252 25.9915 43.93 26.017 43.8079 26.0426C43.6857 26.071 43.5309 26.0852 43.3434 26.0852C43.0593 26.0852 42.7809 26.0241 42.5082 25.902C42.2383 25.7798 42.0138 25.5938 41.8349 25.3438C41.6587 25.0938 41.5707 24.7784 41.5707 24.3977V17.8864ZM48.0756 26.1364C47.4847 26.1364 46.9663 25.9957 46.5202 25.7145C46.0771 25.4332 45.7305 25.0398 45.4805 24.5341C45.2333 24.0284 45.1097 23.4375 45.1097 22.7614C45.1097 22.0795 45.2333 21.4844 45.4805 20.9759C45.7305 20.4673 46.0771 20.0724 46.5202 19.7912C46.9663 19.5099 47.4847 19.3693 48.0756 19.3693C48.6665 19.3693 49.1836 19.5099 49.6268 19.7912C50.0728 20.0724 50.4194 20.4673 50.6665 20.9759C50.9165 21.4844 51.0415 22.0795 51.0415 22.7614C51.0415 23.4375 50.9165 24.0284 50.6665 24.5341C50.4194 25.0398 50.0728 25.4332 49.6268 25.7145C49.1836 25.9957 48.6665 26.1364 48.0756 26.1364ZM48.0756 25.233C48.5245 25.233 48.8938 25.1179 49.1836 24.8878C49.4734 24.6577 49.6879 24.3551 49.8271 23.9801C49.9663 23.6051 50.0359 23.1989 50.0359 22.7614C50.0359 22.3239 49.9663 21.9162 49.8271 21.5384C49.6879 21.1605 49.4734 20.8551 49.1836 20.6222C48.8938 20.3892 48.5245 20.2727 48.0756 20.2727C47.6268 20.2727 47.2575 20.3892 46.9677 20.6222C46.6779 20.8551 46.4634 21.1605 46.3242 21.5384C46.185 21.9162 46.1154 22.3239 46.1154 22.7614C46.1154 23.1989 46.185 23.6051 46.3242 23.9801C46.4634 24.3551 46.6779 24.6577 46.9677 24.8878C47.2575 25.1179 47.6268 25.233 48.0756 25.233Z" fill="white"/>
<path d="M32.4205 73.6364C32.4205 74.5568 32.2543 75.3523 31.9219 76.0227C31.5895 76.6932 31.1335 77.2102 30.554 77.5739C29.9744 77.9375 29.3125 78.1193 28.5682 78.1193C27.8239 78.1193 27.1619 77.9375 26.5824 77.5739C26.0028 77.2102 25.5469 76.6932 25.2145 76.0227C24.8821 75.3523 24.7159 74.5568 24.7159 73.6364C24.7159 72.7159 24.8821 71.9205 25.2145 71.25C25.5469 70.5795 26.0028 70.0625 26.5824 69.6989C27.1619 69.3352 27.8239 69.1534 28.5682 69.1534C29.3125 69.1534 29.9744 69.3352 30.554 69.6989C31.1335 70.0625 31.5895 70.5795 31.9219 71.25C32.2543 71.9205 32.4205 72.7159 32.4205 73.6364ZM31.3977 73.6364C31.3977 72.8807 31.2713 72.2429 31.0185 71.723C30.7685 71.2031 30.429 70.8097 30 70.5426C29.5739 70.2756 29.0966 70.142 28.5682 70.142C28.0398 70.142 27.5611 70.2756 27.1321 70.5426C26.706 70.8097 26.3665 71.2031 26.1136 71.723C25.8636 72.2429 25.7386 72.8807 25.7386 73.6364C25.7386 74.392 25.8636 75.0298 26.1136 75.5497C26.3665 76.0696 26.706 76.4631 27.1321 76.7301C27.5611 76.9972 28.0398 77.1307 28.5682 77.1307C29.0966 77.1307 29.5739 76.9972 30 76.7301C30.429 76.4631 30.7685 76.0696 31.0185 75.5497C31.2713 75.0298 31.3977 74.392 31.3977 73.6364ZM35.0668 74.0625V78H34.0611V71.4545H35.0327V72.4773H35.1179C35.2713 72.1449 35.5043 71.8778 35.8168 71.6761C36.1293 71.4716 36.5327 71.3693 37.027 71.3693C37.4702 71.3693 37.858 71.4602 38.1903 71.642C38.5227 71.821 38.7813 72.0938 38.9659 72.4602C39.1506 72.8239 39.2429 73.2841 39.2429 73.8409V78H38.2372V73.9091C38.2372 73.3949 38.1037 72.9943 37.8366 72.7074C37.5696 72.4176 37.2031 72.2727 36.7372 72.2727C36.4162 72.2727 36.1293 72.3423 35.8764 72.4815C35.6264 72.6207 35.429 72.8239 35.2841 73.0909C35.1392 73.358 35.0668 73.6818 35.0668 74.0625ZM46.3817 78.1534C45.967 78.1534 45.5906 78.0753 45.2525 77.919C44.9144 77.7599 44.646 77.5312 44.4471 77.233C44.2482 76.9318 44.1488 76.5682 44.1488 76.142C44.1488 75.767 44.2227 75.4631 44.3704 75.2301C44.5181 74.9943 44.7156 74.8097 44.9627 74.6761C45.2099 74.5426 45.4826 74.4432 45.7809 74.3778C46.082 74.3097 46.3846 74.2557 46.6886 74.2159C47.0863 74.1648 47.4087 74.1264 47.6559 74.1009C47.9059 74.0724 48.0877 74.0256 48.2013 73.9602C48.3178 73.8949 48.3761 73.7812 48.3761 73.6193V73.5852C48.3761 73.1648 48.261 72.8381 48.0309 72.6051C47.8036 72.3722 47.4585 72.2557 46.9954 72.2557C46.5153 72.2557 46.1388 72.3608 45.8661 72.571C45.5934 72.7812 45.4016 73.0057 45.2908 73.2443L44.3363 72.9034C44.5067 72.5057 44.734 72.196 45.0181 71.9744C45.305 71.75 45.6175 71.5937 45.9556 71.5057C46.2965 71.4148 46.6317 71.3693 46.9613 71.3693C47.1715 71.3693 47.413 71.3949 47.6857 71.446C47.9613 71.4943 48.2269 71.5952 48.4826 71.7486C48.7411 71.902 48.9556 72.1335 49.1261 72.4432C49.2965 72.7528 49.3817 73.1676 49.3817 73.6875V78H48.3761V77.1136H48.3249C48.2567 77.2557 48.1431 77.4077 47.984 77.5696C47.8249 77.7315 47.6133 77.8693 47.3491 77.983C47.0849 78.0966 46.7624 78.1534 46.3817 78.1534ZM46.5352 77.25C46.9329 77.25 47.2681 77.1719 47.5408 77.0156C47.8164 76.8594 48.0238 76.6577 48.163 76.4105C48.305 76.1634 48.3761 75.9034 48.3761 75.6307V74.7102C48.3335 74.7614 48.2397 74.8082 48.0948 74.8509C47.9528 74.8906 47.788 74.9261 47.6005 74.9574C47.4158 74.9858 47.2354 75.0114 47.0593 75.0341C46.886 75.054 46.7454 75.071 46.6374 75.0852C46.3761 75.1193 46.1317 75.1747 45.9045 75.2514C45.68 75.3253 45.4982 75.4375 45.359 75.5881C45.2227 75.7358 45.1545 75.9375 45.1545 76.1932C45.1545 76.5426 45.2837 76.8068 45.5423 76.9858C45.8036 77.1619 46.1346 77.25 46.5352 77.25ZM56.3352 71.4545L53.9148 78H52.892L50.4716 71.4545H51.5625L53.3693 76.6705H53.4375L55.2443 71.4545H56.3352ZM59.3896 78.1534C58.9748 78.1534 58.5984 78.0753 58.2603 77.919C57.9222 77.7599 57.6538 77.5312 57.4549 77.233C57.256 76.9318 57.1566 76.5682 57.1566 76.142C57.1566 75.767 57.2305 75.4631 57.3782 75.2301C57.5259 74.9943 57.7234 74.8097 57.9705 74.6761C58.2177 74.5426 58.4904 74.4432 58.7887 74.3778C59.0898 74.3097 59.3924 74.2557 59.6964 74.2159C60.0941 74.1648 60.4165 74.1264 60.6637 74.1009C60.9137 74.0724 61.0955 74.0256 61.2092 73.9602C61.3256 73.8949 61.3839 73.7812 61.3839 73.6193V73.5852C61.3839 73.1648 61.2688 72.8381 61.0387 72.6051C60.8114 72.3722 60.4663 72.2557 60.0032 72.2557C59.5231 72.2557 59.1467 72.3608 58.8739 72.571C58.6012 72.7812 58.4094 73.0057 58.2987 73.2443L57.3441 72.9034C57.5146 72.5057 57.7418 72.196 58.0259 71.9744C58.3129 71.75 58.6254 71.5937 58.9634 71.5057C59.3043 71.4148 59.6396 71.3693 59.9691 71.3693C60.1793 71.3693 60.4208 71.3949 60.6935 71.446C60.9691 71.4943 61.2347 71.5952 61.4904 71.7486C61.7489 71.902 61.9634 72.1335 62.1339 72.4432C62.3043 72.7528 62.3896 73.1676 62.3896 73.6875V78H61.3839V77.1136H61.3327C61.2646 77.2557 61.1509 77.4077 60.9918 77.5696C60.8327 77.7315 60.6211 77.8693 60.3569 77.983C60.0927 78.0966 59.7702 78.1534 59.3896 78.1534ZM59.543 77.25C59.9407 77.25 60.2759 77.1719 60.5487 77.0156C60.8242 76.8594 61.0316 76.6577 61.1708 76.4105C61.3129 76.1634 61.3839 75.9034 61.3839 75.6307V74.7102C61.3413 74.7614 61.2475 74.8082 61.1026 74.8509C60.9606 74.8906 60.7958 74.9261 60.6083 74.9574C60.4237 74.9858 60.2433 75.0114 60.0671 75.0341C59.8938 75.054 59.7532 75.071 59.6452 75.0852C59.3839 75.1193 59.1396 75.1747 58.9123 75.2514C58.6879 75.3253 58.506 75.4375 58.3668 75.5881C58.2305 75.7358 58.1623 75.9375 58.1623 76.1932C58.1623 76.5426 58.2915 76.8068 58.5501 76.9858C58.8114 77.1619 59.1424 77.25 59.543 77.25ZM64.2251 78V71.4545H65.2308V78H64.2251ZM64.7365 70.3636C64.5405 70.3636 64.3714 70.2969 64.2294 70.1634C64.0902 70.0298 64.0206 69.8693 64.0206 69.6818C64.0206 69.4943 64.0902 69.3338 64.2294 69.2003C64.3714 69.0668 64.5405 69 64.7365 69C64.9325 69 65.1001 69.0668 65.2393 69.2003C65.3814 69.3338 65.4524 69.4943 65.4524 69.6818C65.4524 69.8693 65.3814 70.0298 65.2393 70.1634C65.1001 70.2969 64.9325 70.3636 64.7365 70.3636ZM68.0785 69.2727V78H67.0728V69.2727H68.0785ZM71.8466 78.1534C71.4318 78.1534 71.0554 78.0753 70.7173 77.919C70.3793 77.7599 70.1108 77.5312 69.9119 77.233C69.7131 76.9318 69.6136 76.5682 69.6136 76.142C69.6136 75.767 69.6875 75.4631 69.8352 75.2301C69.983 74.9943 70.1804 74.8097 70.4276 74.6761C70.6747 74.5426 70.9474 74.4432 71.2457 74.3778C71.5469 74.3097 71.8494 74.2557 72.1534 74.2159C72.5511 74.1648 72.8736 74.1264 73.1207 74.1009C73.3707 74.0724 73.5526 74.0256 73.6662 73.9602C73.7827 73.8949 73.8409 73.7812 73.8409 73.6193V73.5852C73.8409 73.1648 73.7259 72.8381 73.4957 72.6051C73.2685 72.3722 72.9233 72.2557 72.4602 72.2557C71.9801 72.2557 71.6037 72.3608 71.331 72.571C71.0582 72.7812 70.8665 73.0057 70.7557 73.2443L69.8011 72.9034C69.9716 72.5057 70.1989 72.196 70.483 71.9744C70.7699 71.75 71.0824 71.5937 71.4205 71.5057C71.7614 71.4148 72.0966 71.3693 72.4261 71.3693C72.6364 71.3693 72.8778 71.3949 73.1506 71.446C73.4261 71.4943 73.6918 71.5952 73.9474 71.7486C74.206 71.902 74.4205 72.1335 74.5909 72.4432C74.7614 72.7528 74.8466 73.1676 74.8466 73.6875V78H73.8409V77.1136H73.7898C73.7216 77.2557 73.608 77.4077 73.4489 77.5696C73.2898 77.7315 73.0781 77.8693 72.8139 77.983C72.5497 78.0966 72.2273 78.1534 71.8466 78.1534ZM72 77.25C72.3977 77.25 72.733 77.1719 73.0057 77.0156C73.2813 76.8594 73.4886 76.6577 73.6278 76.4105C73.7699 76.1634 73.8409 75.9034 73.8409 75.6307V74.7102C73.7983 74.7614 73.7045 74.8082 73.5597 74.8509C73.4176 74.8906 73.2528 74.9261 73.0653 74.9574C72.8807 74.9858 72.7003 75.0114 72.5241 75.0341C72.3509 75.054 72.2102 75.071 72.1023 75.0852C71.8409 75.1193 71.5966 75.1747 71.3693 75.2514C71.1449 75.3253 70.9631 75.4375 70.8239 75.5881C70.6875 75.7358 70.6193 75.9375 70.6193 76.1932C70.6193 76.5426 70.7486 76.8068 71.0071 76.9858C71.2685 77.1619 71.5994 77.25 72 77.25ZM76.8185 78V69.2727H77.8242V72.4943H77.9094C77.9833 72.3807 78.0856 72.2358 78.2163 72.0597C78.3498 71.8807 78.5401 71.7216 78.7873 71.5824C79.0373 71.4403 79.3754 71.3693 79.8015 71.3693C80.3526 71.3693 80.8384 71.5071 81.2589 71.7827C81.6793 72.0582 82.0075 72.4489 82.2433 72.9545C82.479 73.4602 82.5969 74.0568 82.5969 74.7443C82.5969 75.4375 82.479 76.0384 82.2433 76.5469C82.0075 77.0526 81.6808 77.4446 81.2631 77.723C80.8455 77.9986 80.364 78.1364 79.8185 78.1364C79.3981 78.1364 79.0614 78.0668 78.8086 77.9276C78.5558 77.7855 78.3612 77.625 78.2248 77.446C78.0884 77.2642 77.9833 77.1136 77.9094 76.9943H77.7901V78H76.8185ZM77.8072 74.7273C77.8072 75.2216 77.8796 75.6577 78.0245 76.0355C78.1694 76.4105 78.381 76.7045 78.6594 76.9176C78.9379 77.1278 79.2788 77.233 79.6822 77.233C80.1026 77.233 80.4535 77.1222 80.7347 76.9006C81.0188 76.6761 81.2319 76.375 81.3739 75.9972C81.5188 75.6165 81.5913 75.1932 81.5913 74.7273C81.5913 74.267 81.5202 73.8523 81.3782 73.483C81.239 73.1108 81.0273 72.8168 80.7433 72.6009C80.462 72.3821 80.1083 72.2727 79.6822 72.2727C79.2731 72.2727 78.9293 72.3764 78.6509 72.5838C78.3725 72.7884 78.1623 73.0753 78.0202 73.4446C77.8782 73.8111 77.8072 74.2386 77.8072 74.7273ZM84.1353 78V71.4545H85.141V78H84.1353ZM84.6467 70.3636C84.4506 70.3636 84.2816 70.2969 84.1396 70.1634C84.0004 70.0298 83.9308 69.8693 83.9308 69.6818C83.9308 69.4943 84.0004 69.3338 84.1396 69.2003C84.2816 69.0668 84.4506 69 84.6467 69C84.8427 69 85.0103 69.0668 85.1495 69.2003C85.2915 69.3338 85.3626 69.4943 85.3626 69.6818C85.3626 69.8693 85.2915 70.0298 85.1495 70.1634C85.0103 70.2969 84.8427 70.3636 84.6467 70.3636ZM87.9886 69.2727V78H86.983V69.2727H87.9886ZM89.8306 78V71.4545H90.8363V78H89.8306ZM90.342 70.3636C90.146 70.3636 89.9769 70.2969 89.8349 70.1634C89.6957 70.0298 89.6261 69.8693 89.6261 69.6818C89.6261 69.4943 89.6957 69.3338 89.8349 69.2003C89.9769 69.0668 90.146 69 90.342 69C90.538 69 90.7056 69.0668 90.8448 69.2003C90.9869 69.3338 91.0579 69.4943 91.0579 69.6818C91.0579 69.8693 90.9869 70.0298 90.8448 70.1634C90.7056 70.2969 90.538 70.3636 90.342 70.3636ZM95.5249 71.4545V72.3068H92.1328V71.4545H95.5249ZM93.1214 69.8864H94.1271V76.125C94.1271 76.4091 94.1683 76.6222 94.2507 76.7642C94.3359 76.9034 94.4439 76.9972 94.5746 77.0455C94.7081 77.0909 94.8487 77.1136 94.9964 77.1136C95.1072 77.1136 95.1982 77.108 95.2692 77.0966C95.3402 77.0824 95.397 77.071 95.4396 77.0625L95.6442 77.9659C95.576 77.9915 95.4808 78.017 95.3587 78.0426C95.2365 78.071 95.0817 78.0852 94.8942 78.0852C94.6101 78.0852 94.3317 78.0241 94.0589 77.902C93.7891 77.7798 93.5646 77.5938 93.3857 77.3438C93.2095 77.0938 93.1214 76.7784 93.1214 76.3977V69.8864ZM97.6854 80.4545C97.5149 80.4545 97.3629 80.4403 97.2294 80.4119C97.0959 80.3864 97.0036 80.3608 96.9524 80.3352L97.2081 79.4489C97.4524 79.5114 97.6683 79.5341 97.8558 79.517C98.0433 79.5 98.2095 79.4162 98.3544 79.2656C98.5021 79.1179 98.6371 78.8778 98.7592 78.5455L98.9467 78.0341L96.5263 71.4545H97.6172L99.424 76.6705H99.4922L101.299 71.4545H102.39L99.6115 78.9545C99.4865 79.2926 99.3317 79.5724 99.147 79.794C98.9624 80.0185 98.7479 80.1847 98.5036 80.2926C98.2621 80.4006 97.9893 80.4545 97.6854 80.4545ZM109.564 78.1193C108.99 78.1193 108.496 78.0142 108.081 77.804C107.666 77.5937 107.347 77.3054 107.122 76.9389C106.898 76.5724 106.786 76.1534 106.786 75.6818C106.786 75.3182 106.862 74.9957 107.016 74.7145C107.172 74.4304 107.386 74.1676 107.659 73.9261C107.935 73.6818 108.251 73.4375 108.609 73.1932L109.871 72.2557C110.118 72.0937 110.315 71.9205 110.463 71.7358C110.614 71.5511 110.689 71.3097 110.689 71.0114C110.689 70.7898 110.591 70.5753 110.395 70.3679C110.202 70.1605 109.947 70.0568 109.632 70.0568C109.411 70.0568 109.214 70.1136 109.044 70.2273C108.876 70.3381 108.744 70.4801 108.648 70.6534C108.554 70.8239 108.507 71 108.507 71.1818C108.507 71.3864 108.563 71.5938 108.673 71.804C108.787 72.0114 108.93 72.2244 109.104 72.4432C109.28 72.6591 109.462 72.8807 109.649 73.108L113.655 78H112.445L109.138 74.0114C108.831 73.642 108.553 73.3068 108.303 73.0057C108.053 72.7045 107.854 72.4077 107.706 72.1151C107.558 71.8224 107.484 71.5057 107.484 71.1648C107.484 70.7727 107.571 70.429 107.744 70.1335C107.92 69.8352 108.166 69.6037 108.482 69.4389C108.8 69.2713 109.172 69.1875 109.598 69.1875C110.036 69.1875 110.412 69.2727 110.727 69.4432C111.043 69.6108 111.286 69.8338 111.456 70.1122C111.626 70.3878 111.712 70.6875 111.712 71.0114C111.712 71.429 111.608 71.7912 111.401 72.098C111.193 72.4048 110.911 72.6903 110.553 72.9545L108.814 74.25C108.422 74.5398 108.156 74.821 108.017 75.0938C107.878 75.3665 107.808 75.5625 107.808 75.6818C107.808 75.9545 107.879 76.2088 108.021 76.4446C108.163 76.6804 108.364 76.8707 108.622 77.0156C108.881 77.1605 109.183 77.233 109.53 77.233C109.859 77.233 110.18 77.1634 110.493 77.0241C110.805 76.8821 111.088 76.6776 111.341 76.4105C111.597 76.1435 111.798 75.8224 111.946 75.4474C112.097 75.0724 112.172 74.6506 112.172 74.1818H113.143C113.143 74.7614 113.077 75.2344 112.943 75.6009C112.81 75.9673 112.659 76.2543 112.491 76.4616C112.324 76.669 112.189 76.8239 112.087 76.9261C112.053 76.9687 112.021 77.0114 111.993 77.054C111.964 77.0966 111.933 77.1392 111.899 77.1818C111.618 77.4972 111.263 77.733 110.834 77.8892C110.405 78.0426 109.982 78.1193 109.564 78.1193ZM27.8352 86.4545V87.3068H24.3068V86.4545H27.8352ZM25.3636 93V85.5511C25.3636 85.1761 25.4517 84.8636 25.6278 84.6136C25.804 84.3636 26.0327 84.1761 26.3139 84.0511C26.5952 83.9261 26.892 83.8636 27.2045 83.8636C27.4517 83.8636 27.6534 83.8835 27.8097 83.9233C27.9659 83.9631 28.0824 84 28.1591 84.0341L27.8693 84.9034C27.8182 84.8864 27.7472 84.8651 27.6562 84.8395C27.5682 84.8139 27.4517 84.8011 27.3068 84.8011C26.9744 84.8011 26.7344 84.8849 26.5866 85.0526C26.4418 85.2202 26.3693 85.4659 26.3693 85.7898V93H25.3636ZM33.3697 90.3239V86.4545H34.3754V93H33.3697V91.892H33.3015C33.1481 92.2244 32.9094 92.5071 32.5856 92.7401C32.2617 92.9702 31.8526 93.0852 31.3583 93.0852C30.9492 93.0852 30.5856 92.9957 30.2674 92.8168C29.9492 92.6349 29.6992 92.3622 29.5174 91.9986C29.3356 91.6321 29.2447 91.1705 29.2447 90.6136V86.4545H30.2504V90.5455C30.2504 91.0227 30.3839 91.4034 30.6509 91.6875C30.9208 91.9716 31.2646 92.1136 31.6822 92.1136C31.9322 92.1136 32.1864 92.0497 32.445 91.9219C32.7063 91.794 32.9251 91.598 33.1012 91.3338C33.2802 91.0696 33.3697 90.733 33.3697 90.3239ZM37.223 89.0625V93H36.2173V86.4545H37.1889V87.4773H37.2741C37.4276 87.1449 37.6605 86.8778 37.973 86.6761C38.2855 86.4716 38.6889 86.3693 39.1832 86.3693C39.6264 86.3693 40.0142 86.4602 40.3466 86.642C40.679 86.821 40.9375 87.0938 41.1222 87.4602C41.3068 87.8239 41.3991 88.2841 41.3991 88.8409V93H40.3935V88.9091C40.3935 88.3949 40.2599 87.9943 39.9929 87.7074C39.7259 87.4176 39.3594 87.2727 38.8935 87.2727C38.5724 87.2727 38.2855 87.3423 38.0327 87.4815C37.7827 87.6207 37.5852 87.8239 37.4403 88.0909C37.2955 88.358 37.223 88.6818 37.223 89.0625ZM45.7085 93.1364C45.163 93.1364 44.6815 92.9986 44.2638 92.723C43.8462 92.4446 43.5195 92.0526 43.2837 91.5469C43.0479 91.0384 42.93 90.4375 42.93 89.7443C42.93 89.0568 43.0479 88.4602 43.2837 87.9545C43.5195 87.4489 43.8477 87.0582 44.2681 86.7827C44.6886 86.5071 45.1744 86.3693 45.7255 86.3693C46.1516 86.3693 46.4883 86.4403 46.7354 86.5824C46.9854 86.7216 47.1758 86.8807 47.3065 87.0597C47.44 87.2358 47.5437 87.3807 47.6175 87.4943H47.7028V84.2727H48.7085V93H47.7369V91.9943H47.6175C47.5437 92.1136 47.4386 92.2642 47.3022 92.446C47.1658 92.625 46.9712 92.7855 46.7184 92.9276C46.4656 93.0668 46.1289 93.1364 45.7085 93.1364ZM45.8448 92.233C46.2482 92.233 46.5891 92.1278 46.8675 91.9176C47.146 91.7045 47.3576 91.4105 47.5025 91.0355C47.6474 90.6577 47.7198 90.2216 47.7198 89.7273C47.7198 89.2386 47.6488 88.8111 47.5067 88.4446C47.3647 88.0753 47.1545 87.7884 46.8761 87.5838C46.5977 87.3764 46.2539 87.2727 45.8448 87.2727C45.4187 87.2727 45.0636 87.3821 44.7795 87.6009C44.4982 87.8168 44.2866 88.1108 44.1445 88.483C44.0053 88.8523 43.9357 89.267 43.9357 89.7273C43.9357 90.1932 44.0067 90.6165 44.1488 90.9972C44.2937 91.375 44.5067 91.6761 44.788 91.9006C45.0721 92.1222 45.4244 92.233 45.8448 92.233ZM53.4343 93.1364C52.8036 93.1364 52.2596 92.9972 51.8022 92.7188C51.3477 92.4375 50.9968 92.0455 50.7496 91.5426C50.5053 91.0369 50.3832 90.4489 50.3832 89.7784C50.3832 89.108 50.5053 88.517 50.7496 88.0057C50.9968 87.4915 51.3406 87.0909 51.7809 86.804C52.2241 86.5142 52.7411 86.3693 53.332 86.3693C53.6729 86.3693 54.0096 86.4261 54.342 86.5398C54.6744 86.6534 54.9769 86.8381 55.2496 87.0938C55.5224 87.3466 55.7397 87.6818 55.9016 88.0994C56.0636 88.517 56.1445 89.0312 56.1445 89.642V90.0682H51.0991V89.1989H55.1218C55.1218 88.8295 55.0479 88.5 54.9002 88.2102C54.7553 87.9205 54.5479 87.6918 54.2781 87.5241C54.011 87.3565 53.6957 87.2727 53.332 87.2727C52.9315 87.2727 52.5849 87.3722 52.2923 87.571C52.0025 87.767 51.7795 88.0227 51.6232 88.3381C51.467 88.6534 51.3888 88.9915 51.3888 89.3523V89.9318C51.3888 90.4261 51.4741 90.8452 51.6445 91.1889C51.8178 91.5298 52.0579 91.7898 52.3647 91.9688C52.6715 92.1449 53.0281 92.233 53.4343 92.233C53.6985 92.233 53.9371 92.196 54.1502 92.1222C54.3661 92.0455 54.5522 91.9318 54.7085 91.7812C54.8647 91.6278 54.9854 91.4375 55.0707 91.2102L56.0423 91.483C55.94 91.8125 55.7681 92.1023 55.5266 92.3523C55.2852 92.5994 54.9869 92.7926 54.6317 92.9318C54.2766 93.0682 53.8775 93.1364 53.4343 93.1364ZM60.146 93.1364C59.6005 93.1364 59.119 92.9986 58.7013 92.723C58.2837 92.4446 57.957 92.0526 57.7212 91.5469C57.4854 91.0384 57.3675 90.4375 57.3675 89.7443C57.3675 89.0568 57.4854 88.4602 57.7212 87.9545C57.957 87.4489 58.2852 87.0582 58.7056 86.7827C59.1261 86.5071 59.6119 86.3693 60.163 86.3693C60.5891 86.3693 60.9258 86.4403 61.1729 86.5824C61.4229 86.7216 61.6133 86.8807 61.744 87.0597C61.8775 87.2358 61.9812 87.3807 62.055 87.4943H62.1403V84.2727H63.146V93H62.1744V91.9943H62.055C61.9812 92.1136 61.8761 92.2642 61.7397 92.446C61.6033 92.625 61.4087 92.7855 61.1559 92.9276C60.9031 93.0668 60.5664 93.1364 60.146 93.1364ZM60.2823 92.233C60.6857 92.233 61.0266 92.1278 61.305 91.9176C61.5835 91.7045 61.7951 91.4105 61.94 91.0355C62.0849 90.6577 62.1573 90.2216 62.1573 89.7273C62.1573 89.2386 62.0863 88.8111 61.9442 88.4446C61.8022 88.0753 61.592 87.7884 61.3136 87.5838C61.0352 87.3764 60.6914 87.2727 60.2823 87.2727C59.8562 87.2727 59.5011 87.3821 59.217 87.6009C58.9357 87.8168 58.7241 88.1108 58.582 88.483C58.4428 88.8523 58.3732 89.267 58.3732 89.7273C58.3732 90.1932 58.4442 90.6165 58.5863 90.9972C58.7312 91.375 58.9442 91.6761 59.2255 91.9006C59.5096 92.1222 59.8619 92.233 60.2823 92.233ZM69.6957 84.2727V93H68.6388V84.2727H69.6957ZM72.6839 89.0625V93H71.6783V86.4545H72.6499V87.4773H72.7351C72.8885 87.1449 73.1214 86.8778 73.4339 86.6761C73.7464 86.4716 74.1499 86.3693 74.6442 86.3693C75.0874 86.3693 75.4751 86.4602 75.8075 86.642C76.1399 86.821 76.3984 87.0938 76.5831 87.4602C76.7678 87.8239 76.8601 88.2841 76.8601 88.8409V93H75.8544V88.9091C75.8544 88.3949 75.7209 87.9943 75.4538 87.7074C75.1868 87.4176 74.8203 87.2727 74.3544 87.2727C74.0334 87.2727 73.7464 87.3423 73.4936 87.4815C73.2436 87.6207 73.0462 87.8239 72.9013 88.0909C72.7564 88.358 72.6839 88.6818 72.6839 89.0625ZM83.3342 87.9205L82.4308 88.1761C82.3739 88.0256 82.2901 87.8793 82.1793 87.7372C82.0714 87.5923 81.9237 87.473 81.7362 87.3793C81.5487 87.2855 81.3086 87.2386 81.016 87.2386C80.6154 87.2386 80.2816 87.331 80.0146 87.5156C79.7504 87.6974 79.6183 87.929 79.6183 88.2102C79.6183 88.4602 79.7092 88.6577 79.891 88.8026C80.0728 88.9474 80.3569 89.0682 80.7433 89.1648L81.7148 89.4034C82.3001 89.5455 82.7362 89.7628 83.0231 90.0554C83.31 90.3452 83.4535 90.7187 83.4535 91.1761C83.4535 91.5511 83.3455 91.8864 83.1296 92.1818C82.9165 92.4773 82.6183 92.7102 82.2347 92.8807C81.8512 93.0511 81.4052 93.1364 80.8967 93.1364C80.229 93.1364 79.6765 92.9915 79.239 92.7017C78.8015 92.4119 78.5245 91.9886 78.408 91.4318L79.3626 91.1932C79.4535 91.5455 79.6254 91.8097 79.8782 91.9858C80.1339 92.1619 80.4677 92.25 80.8796 92.25C81.3484 92.25 81.7205 92.1506 81.9961 91.9517C82.2745 91.75 82.4137 91.5085 82.4137 91.2273C82.4137 91 82.3342 90.8097 82.1751 90.6562C82.016 90.5 81.7717 90.3835 81.4421 90.3068L80.3512 90.0511C79.7518 89.9091 79.3114 89.6889 79.0302 89.3906C78.7518 89.0895 78.6126 88.7131 78.6126 88.2614C78.6126 87.892 78.7163 87.5653 78.9237 87.2812C79.1339 86.9972 79.4194 86.7741 79.7802 86.6122C80.1438 86.4503 80.5558 86.3693 81.016 86.3693C81.6637 86.3693 82.1722 86.5114 82.5415 86.7955C82.9137 87.0795 83.1779 87.4545 83.3342 87.9205ZM87.8139 86.4545V87.3068H84.4219V86.4545H87.8139ZM85.4105 84.8864H86.4162V91.125C86.4162 91.4091 86.4574 91.6222 86.5398 91.7642C86.625 91.9034 86.733 91.9972 86.8636 92.0455C86.9972 92.0909 87.1378 92.1136 87.2855 92.1136C87.3963 92.1136 87.4872 92.108 87.5582 92.0966C87.6293 92.0824 87.6861 92.071 87.7287 92.0625L87.9332 92.9659C87.8651 92.9915 87.7699 93.017 87.6477 93.0426C87.5256 93.071 87.3707 93.0852 87.1832 93.0852C86.8991 93.0852 86.6207 93.0241 86.348 92.902C86.0781 92.7798 85.8537 92.5938 85.6747 92.3438C85.4986 92.0938 85.4105 91.7784 85.4105 91.3977V84.8864ZM91.2528 93.1534C90.8381 93.1534 90.4616 93.0753 90.1236 92.919C89.7855 92.7599 89.517 92.5312 89.3182 92.233C89.1193 91.9318 89.0199 91.5682 89.0199 91.142C89.0199 90.767 89.0938 90.4631 89.2415 90.2301C89.3892 89.9943 89.5866 89.8097 89.8338 89.6761C90.081 89.5426 90.3537 89.4432 90.652 89.3778C90.9531 89.3097 91.2557 89.2557 91.5597 89.2159C91.9574 89.1648 92.2798 89.1264 92.527 89.1009C92.777 89.0724 92.9588 89.0256 93.0724 88.9602C93.1889 88.8949 93.2472 88.7812 93.2472 88.6193V88.5852C93.2472 88.1648 93.1321 87.8381 92.902 87.6051C92.6747 87.3722 92.3295 87.2557 91.8665 87.2557C91.3864 87.2557 91.0099 87.3608 90.7372 87.571C90.4645 87.7812 90.2727 88.0057 90.1619 88.2443L89.2074 87.9034C89.3778 87.5057 89.6051 87.196 89.8892 86.9744C90.1761 86.75 90.4886 86.5937 90.8267 86.5057C91.1676 86.4148 91.5028 86.3693 91.8324 86.3693C92.0426 86.3693 92.2841 86.3949 92.5568 86.446C92.8324 86.4943 93.098 86.5952 93.3537 86.7486C93.6122 86.902 93.8267 87.1335 93.9972 87.4432C94.1676 87.7528 94.2528 88.1676 94.2528 88.6875V93H93.2472V92.1136H93.196C93.1278 92.2557 93.0142 92.4077 92.8551 92.5696C92.696 92.7315 92.4844 92.8693 92.2202 92.983C91.956 93.0966 91.6335 93.1534 91.2528 93.1534ZM91.4062 92.25C91.804 92.25 92.1392 92.1719 92.4119 92.0156C92.6875 91.8594 92.8949 91.6577 93.0341 91.4105C93.1761 91.1634 93.2472 90.9034 93.2472 90.6307V89.7102C93.2045 89.7614 93.1108 89.8082 92.9659 89.8509C92.8239 89.8906 92.6591 89.9261 92.4716 89.9574C92.2869 89.9858 92.1065 90.0114 91.9304 90.0341C91.7571 90.054 91.6165 90.071 91.5085 90.0852C91.2472 90.1193 91.0028 90.1747 90.7756 90.2514C90.5511 90.3253 90.3693 90.4375 90.2301 90.5881C90.0938 90.7358 90.0256 90.9375 90.0256 91.1932C90.0256 91.5426 90.1548 91.8068 90.4134 91.9858C90.6747 92.1619 91.0057 92.25 91.4062 92.25ZM97.0941 89.0625V93H96.0884V86.4545H97.06V87.4773H97.1452C97.2987 87.1449 97.5316 86.8778 97.8441 86.6761C98.1566 86.4716 98.56 86.3693 99.0543 86.3693C99.4975 86.3693 99.8853 86.4602 100.218 86.642C100.55 86.821 100.809 87.0938 100.993 87.4602C101.178 87.8239 101.27 88.2841 101.27 88.8409V93H100.265V88.9091C100.265 88.3949 100.131 87.9943 99.864 87.7074C99.5969 87.4176 99.2305 87.2727 98.7646 87.2727C98.4435 87.2727 98.1566 87.3423 97.9038 87.4815C97.6538 87.6207 97.4563 87.8239 97.3114 88.0909C97.1665 88.358 97.0941 88.6818 97.0941 89.0625ZM105.955 86.4545V87.3068H102.562V86.4545H105.955ZM103.551 84.8864H104.557V91.125C104.557 91.4091 104.598 91.6222 104.68 91.7642C104.766 91.9034 104.874 91.9972 105.004 92.0455C105.138 92.0909 105.278 92.1136 105.426 92.1136C105.537 92.1136 105.628 92.108 105.699 92.0966C105.77 92.0824 105.827 92.071 105.869 92.0625L106.074 92.9659C106.006 92.9915 105.911 93.017 105.788 93.0426C105.666 93.071 105.511 93.0852 105.324 93.0852C105.04 93.0852 104.761 93.0241 104.489 92.902C104.219 92.7798 103.994 92.5938 103.815 92.3438C103.639 92.0938 103.551 91.7784 103.551 91.3977V84.8864ZM111.337 93H110.229L113.433 84.2727H114.524L117.729 93H116.621L114.013 85.6534H113.945L111.337 93ZM111.746 89.5909H116.212V90.5284H111.746V89.5909ZM122.037 83.8636L119.224 94.3125H118.304L121.116 83.8636H122.037ZM130.388 87H129.331C129.269 86.696 129.159 86.429 129.003 86.1989C128.85 85.9688 128.662 85.7756 128.441 85.6193C128.222 85.4602 127.979 85.3409 127.712 85.2614C127.445 85.1818 127.167 85.142 126.877 85.142C126.348 85.142 125.87 85.2756 125.441 85.5426C125.015 85.8097 124.675 86.2031 124.422 86.723C124.172 87.2429 124.047 87.8807 124.047 88.6364C124.047 89.392 124.172 90.0298 124.422 90.5497C124.675 91.0696 125.015 91.4631 125.441 91.7301C125.87 91.9972 126.348 92.1307 126.877 92.1307C127.167 92.1307 127.445 92.0909 127.712 92.0114C127.979 91.9318 128.222 91.8139 128.441 91.6577C128.662 91.4986 128.85 91.304 129.003 91.0739C129.159 90.8409 129.269 90.5739 129.331 90.2727H130.388C130.309 90.7187 130.164 91.1179 129.953 91.4702C129.743 91.8224 129.482 92.1222 129.169 92.3693C128.857 92.6136 128.506 92.7997 128.117 92.9276C127.73 93.0554 127.317 93.1193 126.877 93.1193C126.132 93.1193 125.471 92.9375 124.891 92.5739C124.311 92.2102 123.855 91.6932 123.523 91.0227C123.191 90.3523 123.025 89.5568 123.025 88.6364C123.025 87.7159 123.191 86.9205 123.523 86.25C123.855 85.5795 124.311 85.0625 124.891 84.6989C125.471 84.3352 126.132 84.1534 126.877 84.1534C127.317 84.1534 127.73 84.2173 128.117 84.3452C128.506 84.473 128.857 84.6605 129.169 84.9077C129.482 85.152 129.743 85.4503 129.953 85.8026C130.164 86.152 130.309 86.5511 130.388 87Z" fill="white"/>
<path d="M35.429 61.358C33.7244 61.358 32.1989 61.0384 30.8523 60.3991C29.5057 59.7514 28.4361 58.8651 27.6435 57.7401C26.8594 56.6151 26.4418 55.3281 26.3906 53.8793H30.9929C31.0781 54.9531 31.5426 55.831 32.3864 56.5128C33.2301 57.1861 34.2443 57.5227 35.429 57.5227C36.358 57.5227 37.1847 57.3097 37.9091 56.8835C38.6335 56.4574 39.2045 55.8651 39.6222 55.1065C40.0398 54.348 40.2443 53.483 40.2358 52.5114C40.2443 51.5227 40.0355 50.6449 39.6094 49.8778C39.1832 49.1108 38.5994 48.5099 37.858 48.0753C37.1165 47.6321 36.2642 47.4105 35.3011 47.4105C34.517 47.402 33.7457 47.5469 32.9872 47.8452C32.2287 48.1435 31.6278 48.5355 31.1847 49.0213L26.902 48.3182L28.2699 34.8182H43.4574V38.7812H32.1946L31.4403 45.723H31.5938C32.0795 45.152 32.7656 44.679 33.652 44.304C34.5384 43.9205 35.5099 43.7287 36.5668 43.7287C38.152 43.7287 39.5668 44.1037 40.8111 44.8537C42.0554 45.5952 43.0355 46.6179 43.7514 47.9219C44.4673 49.2259 44.8253 50.7173 44.8253 52.3963C44.8253 54.1264 44.4247 55.669 43.6236 57.0241C42.831 58.3707 41.7273 59.4318 40.3125 60.2074C38.9062 60.9744 37.2784 61.358 35.429 61.358ZM58.7855 61.4986C56.6804 61.4986 54.8736 60.9659 53.3651 59.9006C51.8651 58.8267 50.7102 57.2798 49.9006 55.2599C49.0994 53.2315 48.6989 50.7898 48.6989 47.9347C48.7074 45.0795 49.1122 42.6506 49.9134 40.6477C50.723 38.6364 51.8778 37.1023 53.3778 36.0455C54.8864 34.9886 56.6889 34.4602 58.7855 34.4602C60.8821 34.4602 62.6847 34.9886 64.1932 36.0455C65.7017 37.1023 66.8565 38.6364 67.6577 40.6477C68.4673 42.6591 68.8722 45.0881 68.8722 47.9347C68.8722 50.7983 68.4673 53.2443 67.6577 55.2727C66.8565 57.2926 65.7017 58.8352 64.1932 59.9006C62.6932 60.9659 60.8906 61.4986 58.7855 61.4986ZM58.7855 57.4972C60.4219 57.4972 61.7131 56.6918 62.6591 55.081C63.6136 53.4616 64.0909 51.0795 64.0909 47.9347C64.0909 45.8551 63.8736 44.108 63.4389 42.6932C63.0043 41.2784 62.3906 40.2131 61.598 39.4972C60.8054 38.7727 59.8679 38.4105 58.7855 38.4105C57.1577 38.4105 55.8707 39.2202 54.9247 40.8395C53.9787 42.4503 53.5014 44.8153 53.4929 47.9347C53.4844 50.0227 53.6932 51.7784 54.1193 53.2017C54.554 54.625 55.1676 55.6989 55.9602 56.4233C56.7528 57.1392 57.6946 57.4972 58.7855 57.4972ZM87.1183 56.0909V54.7102C87.1183 53.696 87.3313 52.7628 87.7575 51.9105C88.1921 51.0582 88.8228 50.3722 89.6495 49.8523C90.4762 49.3324 91.4776 49.0724 92.6538 49.0724C93.864 49.0724 94.8782 49.3324 95.6964 49.8523C96.5146 50.3636 97.1325 51.0455 97.5501 51.8977C97.9762 52.75 98.1893 53.6875 98.1893 54.7102V56.0909C98.1893 57.1051 97.9762 58.0384 97.5501 58.8906C97.1239 59.7429 96.4975 60.429 95.6708 60.9489C94.8526 61.4688 93.8469 61.7287 92.6538 61.7287C91.4606 61.7287 90.4506 61.4688 89.6239 60.9489C88.7972 60.429 88.1708 59.7429 87.7447 58.8906C87.3271 58.0384 87.1183 57.1051 87.1183 56.0909ZM90.4549 54.7102V56.0909C90.4549 56.7642 90.6168 57.3821 90.9407 57.9446C91.2646 58.5071 91.8356 58.7884 92.6538 58.7884C93.4805 58.7884 94.0472 58.5114 94.354 57.9574C94.6694 57.3949 94.8271 56.7727 94.8271 56.0909V54.7102C94.8271 54.0284 94.6779 53.4062 94.3796 52.8438C94.0813 52.2727 93.506 51.9872 92.6538 51.9872C91.8526 51.9872 91.2859 52.2727 90.9535 52.8438C90.6211 53.4062 90.4549 54.0284 90.4549 54.7102ZM73.81 41.108V39.7273C73.81 38.7045 74.0273 37.767 74.462 36.9148C74.8967 36.0625 75.5273 35.3807 76.354 34.8693C77.1808 34.3494 78.1822 34.0895 79.3583 34.0895C80.56 34.0895 81.57 34.3494 82.3881 34.8693C83.2148 35.3807 83.837 36.0625 84.2546 36.9148C84.6722 37.767 84.881 38.7045 84.881 39.7273V41.108C84.881 42.1307 84.668 43.0682 84.2418 43.9205C83.8242 44.7642 83.2021 45.4418 82.3754 45.9531C81.5487 46.4645 80.543 46.7202 79.3583 46.7202C78.1566 46.7202 77.1424 46.4645 76.3157 45.9531C75.4975 45.4418 74.8754 44.7599 74.4492 43.9077C74.0231 43.0554 73.81 42.1222 73.81 41.108ZM77.1722 39.7273V41.108C77.1722 41.7898 77.3299 42.4119 77.6452 42.9744C77.9691 43.5284 78.5401 43.8054 79.3583 43.8054C80.1765 43.8054 80.739 43.5284 81.0458 42.9744C81.3612 42.4119 81.5188 41.7898 81.5188 41.108V39.7273C81.5188 39.0455 81.3697 38.4233 81.0714 37.8608C80.7731 37.2898 80.2021 37.0043 79.3583 37.0043C78.5487 37.0043 77.9819 37.2898 77.658 37.8608C77.3342 38.4318 77.1722 39.054 77.1722 39.7273ZM75.2674 61L93.2674 34.8182H96.4634L78.4634 61H75.2674Z" fill="white"/>
</svg>
