<svg width="147" height="117" viewBox="0 0 147 117" fill="none" xmlns="http://www.w3.org/2000/svg">
<path fill-rule="evenodd" clip-rule="evenodd" d="M85.8497 0C118.126 0 147 21.3881 147 50.9863C147 84.8122 122.736 117 85.8497 117C42.0968 117 0 91.1094 0 50.9863C0 14.3568 45.9065 0 85.8497 0Z" fill="#FAFAFA"/>
<path d="M87.7841 15.2727H88.8409V21.0511C88.8409 21.6477 88.7003 22.1804 88.419 22.6491C88.1406 23.1151 87.7472 23.483 87.2386 23.7528C86.7301 24.0199 86.1335 24.1534 85.4489 24.1534C84.7642 24.1534 84.1676 24.0199 83.6591 23.7528C83.1506 23.483 82.7557 23.1151 82.4744 22.6491C82.196 22.1804 82.0568 21.6477 82.0568 21.0511V15.2727H83.1136V20.9659C83.1136 21.392 83.2074 21.7713 83.3949 22.1037C83.5824 22.4332 83.8494 22.6932 84.196 22.8835C84.5455 23.071 84.9631 23.1648 85.4489 23.1648C85.9347 23.1648 86.3523 23.071 86.7017 22.8835C87.0511 22.6932 87.3182 22.4332 87.5028 22.1037C87.6903 21.7713 87.7841 21.392 87.7841 20.9659V15.2727ZM90.815 26.4545V17.4545H91.7866V18.4943H91.9059C91.9798 18.3807 92.082 18.2358 92.2127 18.0597C92.3462 17.8807 92.5366 17.7216 92.7837 17.5824C93.0337 17.4403 93.3718 17.3693 93.7979 17.3693C94.3491 17.3693 94.8349 17.5071 95.2553 17.7827C95.6758 18.0582 96.0039 18.4489 96.2397 18.9545C96.4755 19.4602 96.5934 20.0568 96.5934 20.7443C96.5934 21.4375 96.4755 22.0384 96.2397 22.5469C96.0039 23.0526 95.6772 23.4446 95.2596 23.723C94.842 23.9986 94.3604 24.1364 93.815 24.1364C93.3945 24.1364 93.0579 24.0668 92.805 23.9276C92.5522 23.7855 92.3576 23.625 92.2212 23.446C92.0849 23.2642 91.9798 23.1136 91.9059 22.9943H91.8207V26.4545H90.815ZM91.8036 20.7273C91.8036 21.2216 91.8761 21.6577 92.021 22.0355C92.1658 22.4105 92.3775 22.7045 92.6559 22.9176C92.9343 23.1278 93.2752 23.233 93.6786 23.233C94.0991 23.233 94.4499 23.1222 94.7312 22.9006C95.0153 22.6761 95.2283 22.375 95.3704 21.9972C95.5153 21.6165 95.5877 21.1932 95.5877 20.7273C95.5877 20.267 95.5167 19.8523 95.3746 19.483C95.2354 19.1108 95.0238 18.8168 94.7397 18.6009C94.4585 18.3821 94.1048 18.2727 93.6786 18.2727C93.2695 18.2727 92.9258 18.3764 92.6474 18.5838C92.369 18.7884 92.1587 19.0753 92.0167 19.4446C91.8746 19.8111 91.8036 20.2386 91.8036 20.7273ZM100.974 17.4545V18.3068H97.582V17.4545H100.974ZM98.5707 15.8864H99.5763V22.125C99.5763 22.4091 99.6175 22.6222 99.6999 22.7642C99.7852 22.9034 99.8931 22.9972 100.024 23.0455C100.157 23.0909 100.298 23.1136 100.446 23.1136C100.556 23.1136 100.647 23.108 100.718 23.0966C100.789 23.0824 100.846 23.071 100.889 23.0625L101.093 23.9659C101.025 23.9915 100.93 24.017 100.808 24.0426C100.686 24.071 100.531 24.0852 100.343 24.0852C100.059 24.0852 99.7809 24.0241 99.5082 23.902C99.2383 23.7798 99.0138 23.5938 98.8349 23.3438C98.6587 23.0938 98.5707 22.7784 98.5707 22.3977V15.8864ZM105.076 24.1364C104.485 24.1364 103.966 23.9957 103.52 23.7145C103.077 23.4332 102.73 23.0398 102.48 22.5341C102.233 22.0284 102.11 21.4375 102.11 20.7614C102.11 20.0795 102.233 19.4844 102.48 18.9759C102.73 18.4673 103.077 18.0724 103.52 17.7912C103.966 17.5099 104.485 17.3693 105.076 17.3693C105.667 17.3693 106.184 17.5099 106.627 17.7912C107.073 18.0724 107.419 18.4673 107.667 18.9759C107.917 19.4844 108.042 20.0795 108.042 20.7614C108.042 21.4375 107.917 22.0284 107.667 22.5341C107.419 23.0398 107.073 23.4332 106.627 23.7145C106.184 23.9957 105.667 24.1364 105.076 24.1364ZM105.076 23.233C105.525 23.233 105.894 23.1179 106.184 22.8878C106.473 22.6577 106.688 22.3551 106.827 21.9801C106.966 21.6051 107.036 21.1989 107.036 20.7614C107.036 20.3239 106.966 19.9162 106.827 19.5384C106.688 19.1605 106.473 18.8551 106.184 18.6222C105.894 18.3892 105.525 18.2727 105.076 18.2727C104.627 18.2727 104.257 18.3892 103.968 18.6222C103.678 18.8551 103.463 19.1605 103.324 19.5384C103.185 19.9162 103.115 20.3239 103.115 20.7614C103.115 21.1989 103.185 21.6051 103.324 21.9801C103.463 22.3551 103.678 22.6577 103.968 22.8878C104.257 23.1179 104.627 23.233 105.076 23.233Z" fill="black"/>
<path d="M30.5795 72.2102V71.2727H37.125V72.2102H34.3807V80H33.3239V72.2102H30.5795ZM37.94 80V73.4545H38.9116V74.4432H38.9798C39.0991 74.1193 39.315 73.8565 39.6275 73.6548C39.94 73.4531 40.2923 73.3523 40.6843 73.3523C40.7582 73.3523 40.8505 73.3537 40.9613 73.3565C41.0721 73.3594 41.1559 73.3636 41.2127 73.3693V74.392C41.1786 74.3835 41.1005 74.3707 40.9783 74.3537C40.859 74.3338 40.7326 74.3239 40.5991 74.3239C40.2809 74.3239 39.9968 74.3906 39.7468 74.5241C39.4996 74.6548 39.3036 74.8366 39.1587 75.0696C39.0167 75.2997 38.9457 75.5625 38.9457 75.858V80H37.94ZM44.331 80.1534C43.9162 80.1534 43.5398 80.0753 43.2017 79.919C42.8636 79.7599 42.5952 79.5312 42.3963 79.233C42.1974 78.9318 42.098 78.5682 42.098 78.142C42.098 77.767 42.1719 77.4631 42.3196 77.2301C42.4673 76.9943 42.6648 76.8097 42.9119 76.6761C43.1591 76.5426 43.4318 76.4432 43.7301 76.3778C44.0313 76.3097 44.3338 76.2557 44.6378 76.2159C45.0355 76.1648 45.358 76.1264 45.6051 76.1009C45.8551 76.0724 46.0369 76.0256 46.1506 75.9602C46.267 75.8949 46.3253 75.7812 46.3253 75.6193V75.5852C46.3253 75.1648 46.2102 74.8381 45.9801 74.6051C45.7528 74.3722 45.4077 74.2557 44.9446 74.2557C44.4645 74.2557 44.0881 74.3608 43.8153 74.571C43.5426 74.7812 43.3509 75.0057 43.2401 75.2443L42.2855 74.9034C42.456 74.5057 42.6832 74.196 42.9673 73.9744C43.2543 73.75 43.5668 73.5937 43.9048 73.5057C44.2457 73.4148 44.581 73.3693 44.9105 73.3693C45.1207 73.3693 45.3622 73.3949 45.6349 73.446C45.9105 73.4943 46.1761 73.5952 46.4318 73.7486C46.6903 73.902 46.9048 74.1335 47.0753 74.4432C47.2457 74.7528 47.331 75.1676 47.331 75.6875V80H46.3253V79.1136H46.2741C46.206 79.2557 46.0923 79.4077 45.9332 79.5696C45.7741 79.7315 45.5625 79.8693 45.2983 79.983C45.0341 80.0966 44.7116 80.1534 44.331 80.1534ZM44.4844 79.25C44.8821 79.25 45.2173 79.1719 45.4901 79.0156C45.7656 78.8594 45.973 78.6577 46.1122 78.4105C46.2543 78.1634 46.3253 77.9034 46.3253 77.6307V76.7102C46.2827 76.7614 46.1889 76.8082 46.044 76.8509C45.902 76.8906 45.7372 76.9261 45.5497 76.9574C45.3651 76.9858 45.1847 77.0114 45.0085 77.0341C44.8352 77.054 44.6946 77.071 44.5866 77.0852C44.3253 77.1193 44.081 77.1747 43.8537 77.2514C43.6293 77.3253 43.4474 77.4375 43.3082 77.5881C43.1719 77.7358 43.1037 77.9375 43.1037 78.1932C43.1037 78.5426 43.233 78.8068 43.4915 78.9858C43.7528 79.1619 44.0838 79.25 44.4844 79.25ZM51.6381 80.1364C51.0927 80.1364 50.6112 79.9986 50.1935 79.723C49.7759 79.4446 49.4492 79.0526 49.2134 78.5469C48.9776 78.0384 48.8597 77.4375 48.8597 76.7443C48.8597 76.0568 48.9776 75.4602 49.2134 74.9545C49.4492 74.4489 49.7773 74.0582 50.1978 73.7827C50.6183 73.5071 51.104 73.3693 51.6552 73.3693C52.0813 73.3693 52.418 73.4403 52.6651 73.5824C52.9151 73.7216 53.1055 73.8807 53.2362 74.0597C53.3697 74.2358 53.4734 74.3807 53.5472 74.4943H53.6325V71.2727H54.6381V80H53.6665V78.9943H53.5472C53.4734 79.1136 53.3683 79.2642 53.2319 79.446C53.0955 79.625 52.9009 79.7855 52.6481 79.9276C52.3952 80.0668 52.0586 80.1364 51.6381 80.1364ZM51.7745 79.233C52.1779 79.233 52.5188 79.1278 52.7972 78.9176C53.0756 78.7045 53.2873 78.4105 53.4322 78.0355C53.5771 77.6577 53.6495 77.2216 53.6495 76.7273C53.6495 76.2386 53.5785 75.8111 53.4364 75.4446C53.2944 75.0753 53.0842 74.7884 52.8058 74.5838C52.5273 74.3764 52.1836 74.2727 51.7745 74.2727C51.3484 74.2727 50.9933 74.3821 50.7092 74.6009C50.4279 74.8168 50.2163 75.1108 50.0742 75.483C49.935 75.8523 49.8654 76.267 49.8654 76.7273C49.8654 77.1932 49.9364 77.6165 50.0785 77.9972C50.2234 78.375 50.4364 78.6761 50.7177 78.9006C51.0018 79.1222 51.354 79.233 51.7745 79.233ZM59.364 80.1364C58.7333 80.1364 58.1893 79.9972 57.7319 79.7188C57.2773 79.4375 56.9265 79.0455 56.6793 78.5426C56.435 78.0369 56.3129 77.4489 56.3129 76.7784C56.3129 76.108 56.435 75.517 56.6793 75.0057C56.9265 74.4915 57.2702 74.0909 57.7106 73.804C58.1538 73.5142 58.6708 73.3693 59.2617 73.3693C59.6026 73.3693 59.9393 73.4261 60.2717 73.5398C60.604 73.6534 60.9066 73.8381 61.1793 74.0938C61.4521 74.3466 61.6694 74.6818 61.8313 75.0994C61.9933 75.517 62.0742 76.0312 62.0742 76.642V77.0682H57.0288V76.1989H61.0515C61.0515 75.8295 60.9776 75.5 60.8299 75.2102C60.685 74.9205 60.4776 74.6918 60.2077 74.5241C59.9407 74.3565 59.6254 74.2727 59.2617 74.2727C58.8612 74.2727 58.5146 74.3722 58.2219 74.571C57.9322 74.767 57.7092 75.0227 57.5529 75.3381C57.3967 75.6534 57.3185 75.9915 57.3185 76.3523V76.9318C57.3185 77.4261 57.4038 77.8452 57.5742 78.1889C57.7475 78.5298 57.9876 78.7898 58.2944 78.9688C58.6012 79.1449 58.9577 79.233 59.364 79.233C59.6282 79.233 59.8668 79.196 60.0799 79.1222C60.2958 79.0455 60.4819 78.9318 60.6381 78.7812C60.7944 78.6278 60.9151 78.4375 61.0004 78.2102L61.9719 78.483C61.8697 78.8125 61.6978 79.1023 61.4563 79.3523C61.2148 79.5994 60.9165 79.7926 60.5614 79.9318C60.2063 80.0682 59.8072 80.1364 59.364 80.1364ZM63.604 80V73.4545H64.5756V74.4432H64.6438C64.7631 74.1193 64.979 73.8565 65.2915 73.6548C65.604 73.4531 65.9563 73.3523 66.3484 73.3523C66.4222 73.3523 66.5146 73.3537 66.6254 73.3565C66.7362 73.3594 66.82 73.3636 66.8768 73.3693V74.392C66.8427 74.3835 66.7646 74.3707 66.6424 74.3537C66.5231 74.3338 66.3967 74.3239 66.2631 74.3239C65.945 74.3239 65.6609 74.3906 65.4109 74.5241C65.1637 74.6548 64.9677 74.8366 64.8228 75.0696C64.6808 75.2997 64.6097 75.5625 64.6097 75.858V80H63.604ZM72.7053 74.9205L71.8018 75.1761C71.745 75.0256 71.6612 74.8793 71.5504 74.7372C71.4425 74.5923 71.2947 74.473 71.1072 74.3793C70.9197 74.2855 70.6797 74.2386 70.3871 74.2386C69.9865 74.2386 69.6527 74.331 69.3857 74.5156C69.1214 74.6974 68.9893 74.929 68.9893 75.2102C68.9893 75.4602 69.0803 75.6577 69.2621 75.8026C69.4439 75.9474 69.728 76.0682 70.1143 76.1648L71.0859 76.4034C71.6712 76.5455 72.1072 76.7628 72.3942 77.0554C72.6811 77.3452 72.8246 77.7187 72.8246 78.1761C72.8246 78.5511 72.7166 78.8864 72.5007 79.1818C72.2876 79.4773 71.9893 79.7102 71.6058 79.8807C71.2223 80.0511 70.7763 80.1364 70.2678 80.1364C69.6001 80.1364 69.0476 79.9915 68.6101 79.7017C68.1726 79.4119 67.8956 78.9886 67.7791 78.4318L68.7337 78.1932C68.8246 78.5455 68.9964 78.8097 69.2493 78.9858C69.505 79.1619 69.8388 79.25 70.2507 79.25C70.7195 79.25 71.0916 79.1506 71.3672 78.9517C71.6456 78.75 71.7848 78.5085 71.7848 78.2273C71.7848 78 71.7053 77.8097 71.5462 77.6562C71.3871 77.5 71.1428 77.3835 70.8132 77.3068L69.7223 77.0511C69.1229 76.9091 68.6825 76.6889 68.4013 76.3906C68.1229 76.0895 67.9837 75.7131 67.9837 75.2614C67.9837 74.892 68.0874 74.5653 68.2947 74.2812C68.505 73.9972 68.7905 73.7741 69.1513 73.6122C69.5149 73.4503 69.9268 73.3693 70.3871 73.3693C71.0348 73.3693 71.5433 73.5114 71.9126 73.7955C72.2848 74.0795 72.549 74.4545 72.7053 74.9205ZM82.3498 74.9205L81.4464 75.1761C81.3896 75.0256 81.3058 74.8793 81.195 74.7372C81.087 74.5923 80.9393 74.473 80.7518 74.3793C80.5643 74.2855 80.3242 74.2386 80.0316 74.2386C79.631 74.2386 79.2972 74.331 79.0302 74.5156C78.766 74.6974 78.6339 74.929 78.6339 75.2102C78.6339 75.4602 78.7248 75.6577 78.9066 75.8026C79.0884 75.9474 79.3725 76.0682 79.7589 76.1648L80.7305 76.4034C81.3157 76.5455 81.7518 76.7628 82.0387 77.0554C82.3256 77.3452 82.4691 77.7187 82.4691 78.1761C82.4691 78.5511 82.3612 78.8864 82.1452 79.1818C81.9322 79.4773 81.6339 79.7102 81.2504 79.8807C80.8668 80.0511 80.4208 80.1364 79.9123 80.1364C79.2447 80.1364 78.6921 79.9915 78.2546 79.7017C77.8171 79.4119 77.5401 78.9886 77.4237 78.4318L78.3782 78.1932C78.4691 78.5455 78.641 78.8097 78.8938 78.9858C79.1495 79.1619 79.4833 79.25 79.8952 79.25C80.364 79.25 80.7362 79.1506 81.0117 78.9517C81.2901 78.75 81.4293 78.5085 81.4293 78.2273C81.4293 78 81.3498 77.8097 81.1907 77.6562C81.0316 77.5 80.7873 77.3835 80.4577 77.3068L79.3668 77.0511C78.7674 76.9091 78.3271 76.6889 78.0458 76.3906C77.7674 76.0895 77.6282 75.7131 77.6282 75.2614C77.6282 74.892 77.7319 74.5653 77.9393 74.2812C78.1495 73.9972 78.435 73.7741 78.7958 73.6122C79.1594 73.4503 79.5714 73.3693 80.0316 73.3693C80.6793 73.3693 81.1879 73.5114 81.5572 73.7955C81.9293 74.0795 82.1935 74.4545 82.3498 74.9205ZM85.9091 80.1534C85.4943 80.1534 85.1179 80.0753 84.7798 79.919C84.4418 79.7599 84.1733 79.5312 83.9744 79.233C83.7756 78.9318 83.6761 78.5682 83.6761 78.142C83.6761 77.767 83.75 77.4631 83.8977 77.2301C84.0455 76.9943 84.2429 76.8097 84.4901 76.6761C84.7372 76.5426 85.0099 76.4432 85.3082 76.3778C85.6094 76.3097 85.9119 76.2557 86.2159 76.2159C86.6136 76.1648 86.9361 76.1264 87.1832 76.1009C87.4332 76.0724 87.6151 76.0256 87.7287 75.9602C87.8452 75.8949 87.9034 75.7812 87.9034 75.6193V75.5852C87.9034 75.1648 87.7884 74.8381 87.5582 74.6051C87.331 74.3722 86.9858 74.2557 86.5227 74.2557C86.0426 74.2557 85.6662 74.3608 85.3935 74.571C85.1207 74.7812 84.929 75.0057 84.8182 75.2443L83.8636 74.9034C84.0341 74.5057 84.2614 74.196 84.5455 73.9744C84.8324 73.75 85.1449 73.5937 85.483 73.5057C85.8239 73.4148 86.1591 73.3693 86.4886 73.3693C86.6989 73.3693 86.9403 73.3949 87.2131 73.446C87.4886 73.4943 87.7543 73.5952 88.0099 73.7486C88.2685 73.902 88.483 74.1335 88.6534 74.4432C88.8239 74.7528 88.9091 75.1676 88.9091 75.6875V80H87.9034V79.1136H87.8523C87.7841 79.2557 87.6705 79.4077 87.5114 79.5696C87.3523 79.7315 87.1406 79.8693 86.8764 79.983C86.6122 80.0966 86.2898 80.1534 85.9091 80.1534ZM86.0625 79.25C86.4602 79.25 86.7955 79.1719 87.0682 79.0156C87.3438 78.8594 87.5511 78.6577 87.6903 78.4105C87.8324 78.1634 87.9034 77.9034 87.9034 77.6307V76.7102C87.8608 76.7614 87.767 76.8082 87.6222 76.8509C87.4801 76.8906 87.3153 76.9261 87.1278 76.9574C86.9432 76.9858 86.7628 77.0114 86.5866 77.0341C86.4134 77.054 86.2727 77.071 86.1648 77.0852C85.9034 77.1193 85.6591 77.1747 85.4318 77.2514C85.2074 77.3253 85.0256 77.4375 84.8864 77.5881C84.75 77.7358 84.6818 77.9375 84.6818 78.1932C84.6818 78.5426 84.8111 78.8068 85.0696 78.9858C85.331 79.1619 85.6619 79.25 86.0625 79.25ZM95.8626 73.4545L93.4421 80H92.4194L89.9989 73.4545H91.0898L92.8967 78.6705H92.9648L94.7717 73.4545H95.8626ZM99.6999 80.1364C99.0692 80.1364 98.5252 79.9972 98.0678 79.7188C97.6133 79.4375 97.2624 79.0455 97.0153 78.5426C96.771 78.0369 96.6488 77.4489 96.6488 76.7784C96.6488 76.108 96.771 75.517 97.0153 75.0057C97.2624 74.4915 97.6062 74.0909 98.0465 73.804C98.4897 73.5142 99.0067 73.3693 99.5977 73.3693C99.9386 73.3693 100.275 73.4261 100.608 73.5398C100.94 73.6534 101.243 73.8381 101.515 74.0938C101.788 74.3466 102.005 74.6818 102.167 75.0994C102.329 75.517 102.41 76.0312 102.41 76.642V77.0682H97.3647V76.1989H101.387C101.387 75.8295 101.314 75.5 101.166 75.2102C101.021 74.9205 100.814 74.6918 100.544 74.5241C100.277 74.3565 99.9613 74.2727 99.5977 74.2727C99.1971 74.2727 98.8505 74.3722 98.5579 74.571C98.2681 74.767 98.0451 75.0227 97.8888 75.3381C97.7326 75.6534 97.6545 75.9915 97.6545 76.3523V76.9318C97.6545 77.4261 97.7397 77.8452 97.9102 78.1889C98.0835 78.5298 98.3235 78.7898 98.6303 78.9688C98.9371 79.1449 99.2937 79.233 99.6999 79.233C99.9641 79.233 100.203 79.196 100.416 79.1222C100.632 79.0455 100.818 78.9318 100.974 78.7812C101.13 78.6278 101.251 78.4375 101.336 78.2102L102.308 78.483C102.206 78.8125 102.034 79.1023 101.792 79.3523C101.551 79.5994 101.252 79.7926 100.897 79.9318C100.542 80.0682 100.143 80.1364 99.6999 80.1364ZM110.23 73.4545V74.3068H106.701V73.4545H110.23ZM107.758 80V72.5511C107.758 72.1761 107.846 71.8636 108.022 71.6136C108.199 71.3636 108.427 71.1761 108.708 71.0511C108.99 70.9261 109.287 70.8636 109.599 70.8636C109.846 70.8636 110.048 70.8835 110.204 70.9233C110.36 70.9631 110.477 71 110.554 71.0341L110.264 71.9034C110.213 71.8864 110.142 71.8651 110.051 71.8395C109.963 71.8139 109.846 71.8011 109.701 71.8011C109.369 71.8011 109.129 71.8849 108.981 72.0526C108.836 72.2202 108.764 72.4659 108.764 72.7898V80H107.758ZM111.639 80V73.4545H112.611V74.4432H112.679C112.798 74.1193 113.014 73.8565 113.327 73.6548C113.639 73.4531 113.991 73.3523 114.384 73.3523C114.457 73.3523 114.55 73.3537 114.661 73.3565C114.771 73.3594 114.855 73.3636 114.912 73.3693V74.392C114.878 74.3835 114.8 74.3707 114.678 74.3537C114.558 74.3338 114.432 74.3239 114.298 74.3239C113.98 74.3239 113.696 74.3906 113.446 74.5241C113.199 74.6548 113.003 74.8366 112.858 75.0696C112.716 75.2997 112.645 75.5625 112.645 75.858V80H111.639ZM118.564 80.1364C117.973 80.1364 117.455 79.9957 117.009 79.7145C116.565 79.4332 116.219 79.0398 115.969 78.5341C115.722 78.0284 115.598 77.4375 115.598 76.7614C115.598 76.0795 115.722 75.4844 115.969 74.9759C116.219 74.4673 116.565 74.0724 117.009 73.7912C117.455 73.5099 117.973 73.3693 118.564 73.3693C119.155 73.3693 119.672 73.5099 120.115 73.7912C120.561 74.0724 120.908 74.4673 121.155 74.9759C121.405 75.4844 121.53 76.0795 121.53 76.7614C121.53 77.4375 121.405 78.0284 121.155 78.5341C120.908 79.0398 120.561 79.4332 120.115 79.7145C119.672 79.9957 119.155 80.1364 118.564 80.1364ZM118.564 79.233C119.013 79.233 119.382 79.1179 119.672 78.8878C119.962 78.6577 120.176 78.3551 120.315 77.9801C120.455 77.6051 120.524 77.1989 120.524 76.7614C120.524 76.3239 120.455 75.9162 120.315 75.5384C120.176 75.1605 119.962 74.8551 119.672 74.6222C119.382 74.3892 119.013 74.2727 118.564 74.2727C118.115 74.2727 117.746 74.3892 117.456 74.6222C117.166 74.8551 116.952 75.1605 116.812 75.5384C116.673 75.9162 116.604 76.3239 116.604 76.7614C116.604 77.1989 116.673 77.6051 116.812 77.9801C116.952 78.3551 117.166 78.6577 117.456 78.8878C117.746 79.1179 118.115 79.233 118.564 79.233ZM123.065 80V73.4545H124.037V74.4773H124.122C124.258 74.1278 124.478 73.8565 124.782 73.6634C125.086 73.4673 125.451 73.3693 125.877 73.3693C126.309 73.3693 126.669 73.4673 126.956 73.6634C127.245 73.8565 127.471 74.1278 127.633 74.4773H127.701C127.869 74.1392 128.12 73.8707 128.456 73.6719C128.791 73.4702 129.193 73.3693 129.662 73.3693C130.247 73.3693 130.725 73.5526 131.098 73.919C131.47 74.2827 131.656 74.8494 131.656 75.6193V80H130.65V75.6193C130.65 75.1364 130.518 74.7912 130.254 74.5838C129.99 74.3764 129.679 74.2727 129.321 74.2727C128.86 74.2727 128.504 74.4119 128.251 74.6903C127.998 74.9659 127.872 75.3153 127.872 75.7386V80H126.849V75.517C126.849 75.1449 126.728 74.8452 126.487 74.6179C126.245 74.3878 125.934 74.2727 125.554 74.2727C125.292 74.2727 125.048 74.3423 124.821 74.4815C124.596 74.6207 124.414 74.8139 124.275 75.0611C124.139 75.3054 124.071 75.5881 124.071 75.9091V80H123.065ZM33.392 95.1364C32.8466 95.1364 32.3651 94.9986 31.9474 94.723C31.5298 94.4446 31.2031 94.0526 30.9673 93.5469C30.7315 93.0384 30.6136 92.4375 30.6136 91.7443C30.6136 91.0568 30.7315 90.4602 30.9673 89.9545C31.2031 89.4489 31.5313 89.0582 31.9517 88.7827C32.3722 88.5071 32.858 88.3693 33.4091 88.3693C33.8352 88.3693 34.1719 88.4403 34.419 88.5824C34.669 88.7216 34.8594 88.8807 34.9901 89.0597C35.1236 89.2358 35.2273 89.3807 35.3011 89.4943H35.3864V86.2727H36.392V95H35.4205V93.9943H35.3011C35.2273 94.1136 35.1222 94.2642 34.9858 94.446C34.8494 94.625 34.6548 94.7855 34.402 94.9276C34.1491 95.0668 33.8125 95.1364 33.392 95.1364ZM33.5284 94.233C33.9318 94.233 34.2727 94.1278 34.5511 93.9176C34.8295 93.7045 35.0412 93.4105 35.1861 93.0355C35.331 92.6577 35.4034 92.2216 35.4034 91.7273C35.4034 91.2386 35.3324 90.8111 35.1903 90.4446C35.0483 90.0753 34.8381 89.7884 34.5597 89.5838C34.2813 89.3764 33.9375 89.2727 33.5284 89.2727C33.1023 89.2727 32.7472 89.3821 32.4631 89.6009C32.1818 89.8168 31.9702 90.1108 31.8281 90.483C31.6889 90.8523 31.6193 91.267 31.6193 91.7273C31.6193 92.1932 31.6903 92.6165 31.8324 92.9972C31.9773 93.375 32.1903 93.6761 32.4716 93.9006C32.7557 94.1222 33.108 94.233 33.5284 94.233ZM38.3736 95V88.4545H39.3793V95H38.3736ZM38.8849 87.3636C38.6889 87.3636 38.5199 87.2969 38.3778 87.1634C38.2386 87.0298 38.169 86.8693 38.169 86.6818C38.169 86.4943 38.2386 86.3338 38.3778 86.2003C38.5199 86.0668 38.6889 86 38.8849 86C39.081 86 39.2486 86.0668 39.3878 86.2003C39.5298 86.3338 39.6009 86.4943 39.6009 86.6818C39.6009 86.8693 39.5298 87.0298 39.3878 87.1634C39.2486 87.2969 39.081 87.3636 38.8849 87.3636ZM45.8576 89.9205L44.9542 90.1761C44.8974 90.0256 44.8136 89.8793 44.7028 89.7372C44.5948 89.5923 44.4471 89.473 44.2596 89.3793C44.0721 89.2855 43.832 89.2386 43.5394 89.2386C43.1388 89.2386 42.805 89.331 42.538 89.5156C42.2738 89.6974 42.1417 89.929 42.1417 90.2102C42.1417 90.4602 42.2326 90.6577 42.4144 90.8026C42.5962 90.9474 42.8803 91.0682 43.2667 91.1648L44.2383 91.4034C44.8235 91.5455 45.2596 91.7628 45.5465 92.0554C45.8335 92.3452 45.9769 92.7187 45.9769 93.1761C45.9769 93.5511 45.869 93.8864 45.6531 94.1818C45.44 94.4773 45.1417 94.7102 44.7582 94.8807C44.3746 95.0511 43.9286 95.1364 43.4201 95.1364C42.7525 95.1364 42.1999 94.9915 41.7624 94.7017C41.3249 94.4119 41.0479 93.9886 40.9315 93.4318L41.886 93.1932C41.9769 93.5455 42.1488 93.8097 42.4016 93.9858C42.6573 94.1619 42.9911 94.25 43.4031 94.25C43.8718 94.25 44.244 94.1506 44.5195 93.9517C44.7979 93.75 44.9371 93.5085 44.9371 93.2273C44.9371 93 44.8576 92.8097 44.6985 92.6562C44.5394 92.5 44.2951 92.3835 43.9656 92.3068L42.8746 92.0511C42.2752 91.9091 41.8349 91.6889 41.5536 91.3906C41.2752 91.0895 41.136 90.7131 41.136 90.2614C41.136 89.892 41.2397 89.5653 41.4471 89.2812C41.6573 88.9972 41.9428 88.7741 42.3036 88.6122C42.6673 88.4503 43.0792 88.3693 43.5394 88.3693C44.1871 88.3693 44.6957 88.5114 45.065 88.7955C45.4371 89.0795 45.7013 89.4545 45.8576 89.9205ZM50.1499 95.1364C49.5362 95.1364 49.0078 94.9915 48.5646 94.7017C48.1214 94.4119 47.7805 94.0128 47.5419 93.5043C47.3033 92.9957 47.1839 92.4148 47.1839 91.7614C47.1839 91.0966 47.3061 90.5099 47.5504 90.0014C47.7976 89.4901 48.1413 89.0909 48.5817 88.804C49.0249 88.5142 49.5419 88.3693 50.1328 88.3693C50.593 88.3693 51.0078 88.4545 51.3771 88.625C51.7464 88.7955 52.049 89.0341 52.2848 89.3409C52.5206 89.6477 52.6669 90.0057 52.7237 90.4148H51.718C51.6413 90.1165 51.4709 89.8523 51.2067 89.6222C50.9453 89.3892 50.593 89.2727 50.1499 89.2727C49.7578 89.2727 49.4141 89.375 49.1186 89.5795C48.826 89.7812 48.5973 90.0668 48.4325 90.4361C48.2706 90.8026 48.1896 91.233 48.1896 91.7273C48.1896 92.233 48.2692 92.6733 48.4283 93.0483C48.5902 93.4233 48.8175 93.7145 49.1101 93.9219C49.4055 94.1293 49.7521 94.233 50.1499 94.233C50.4112 94.233 50.6484 94.1875 50.8615 94.0966C51.0746 94.0057 51.255 93.875 51.4027 93.7045C51.5504 93.5341 51.6555 93.3295 51.718 93.0909H52.7237C52.6669 93.4773 52.5263 93.8253 52.3018 94.1349C52.0803 94.4418 51.7862 94.6861 51.4197 94.8679C51.0561 95.0469 50.6328 95.1364 50.1499 95.1364ZM56.853 95.1364C56.2621 95.1364 55.7436 94.9957 55.2976 94.7145C54.8544 94.4332 54.5078 94.0398 54.2578 93.5341C54.0107 93.0284 53.8871 92.4375 53.8871 91.7614C53.8871 91.0795 54.0107 90.4844 54.2578 89.9759C54.5078 89.4673 54.8544 89.0724 55.2976 88.7912C55.7436 88.5099 56.2621 88.3693 56.853 88.3693C57.4439 88.3693 57.9609 88.5099 58.4041 88.7912C58.8501 89.0724 59.1967 89.4673 59.4439 89.9759C59.6939 90.4844 59.8189 91.0795 59.8189 91.7614C59.8189 92.4375 59.6939 93.0284 59.4439 93.5341C59.1967 94.0398 58.8501 94.4332 58.4041 94.7145C57.9609 94.9957 57.4439 95.1364 56.853 95.1364ZM56.853 94.233C57.3018 94.233 57.6712 94.1179 57.9609 93.8878C58.2507 93.6577 58.4652 93.3551 58.6044 92.9801C58.7436 92.6051 58.8132 92.1989 58.8132 91.7614C58.8132 91.3239 58.7436 90.9162 58.6044 90.5384C58.4652 90.1605 58.2507 89.8551 57.9609 89.6222C57.6712 89.3892 57.3018 89.2727 56.853 89.2727C56.4041 89.2727 56.0348 89.3892 55.745 89.6222C55.4553 89.8551 55.2408 90.1605 55.1016 90.5384C54.9624 90.9162 54.8928 91.3239 54.8928 91.7614C54.8928 92.1989 54.9624 92.6051 55.1016 92.9801C55.2408 93.3551 55.4553 93.6577 55.745 93.8878C56.0348 94.1179 56.4041 94.233 56.853 94.233ZM65.479 92.3239V88.4545H66.4847V95H65.479V93.892H65.4109C65.2575 94.2244 65.0188 94.5071 64.695 94.7401C64.3711 94.9702 63.962 95.0852 63.4677 95.0852C63.0586 95.0852 62.695 94.9957 62.3768 94.8168C62.0586 94.6349 61.8086 94.3622 61.6268 93.9986C61.445 93.6321 61.354 93.1705 61.354 92.6136V88.4545H62.3597V92.5455C62.3597 93.0227 62.4933 93.4034 62.7603 93.6875C63.0302 93.9716 63.3739 94.1136 63.7915 94.1136C64.0415 94.1136 64.2958 94.0497 64.5543 93.9219C64.8157 93.794 65.0344 93.598 65.2106 93.3338C65.3896 93.0696 65.479 92.733 65.479 92.3239ZM69.3324 91.0625V95H68.3267V88.4545H69.2983V89.4773H69.3835C69.5369 89.1449 69.7699 88.8778 70.0824 88.6761C70.3949 88.4716 70.7983 88.3693 71.2926 88.3693C71.7358 88.3693 72.1236 88.4602 72.456 88.642C72.7884 88.821 73.0469 89.0938 73.2315 89.4602C73.4162 89.8239 73.5085 90.2841 73.5085 90.8409V95H72.5028V90.9091C72.5028 90.3949 72.3693 89.9943 72.1023 89.7074C71.8352 89.4176 71.4688 89.2727 71.0028 89.2727C70.6818 89.2727 70.3949 89.3423 70.142 89.4815C69.892 89.6207 69.6946 89.8239 69.5497 90.0909C69.4048 90.358 69.3324 90.6818 69.3324 91.0625ZM78.1928 88.4545V89.3068H74.8008V88.4545H78.1928ZM75.7894 86.8864H76.7951V93.125C76.7951 93.4091 76.8363 93.6222 76.9187 93.7642C77.0039 93.9034 77.1119 93.9972 77.2425 94.0455C77.3761 94.0909 77.5167 94.1136 77.6644 94.1136C77.7752 94.1136 77.8661 94.108 77.9371 94.0966C78.0082 94.0824 78.065 94.071 78.1076 94.0625L78.3121 94.9659C78.244 94.9915 78.1488 95.017 78.0266 95.0426C77.9045 95.071 77.7496 95.0852 77.5621 95.0852C77.2781 95.0852 76.9996 95.0241 76.7269 94.902C76.457 94.7798 76.2326 94.5938 76.0536 94.3438C75.8775 94.0938 75.7894 93.7784 75.7894 93.3977V86.8864Z" fill="black"/>
<path d="M40.7642 62.2727V29.5455H42.8608V62.2727H40.7642ZM46.8111 40.0156C46.6918 38.8991 46.1889 38.0298 45.3026 37.4077C44.4247 36.7855 43.2827 36.4744 41.8764 36.4744C40.8878 36.4744 40.0398 36.6236 39.3324 36.9219C38.625 37.2202 38.0838 37.625 37.7088 38.1364C37.3338 38.6477 37.142 39.2315 37.1335 39.8878C37.1335 40.4332 37.2571 40.9062 37.5043 41.3068C37.7599 41.7074 38.1051 42.0483 38.5398 42.3295C38.9744 42.6023 39.456 42.8324 39.9844 43.0199C40.5128 43.2074 41.0455 43.3651 41.5824 43.4929L44.0369 44.1065C45.0256 44.3366 45.9759 44.6477 46.8878 45.0398C47.8082 45.4318 48.6307 45.9261 49.3551 46.5227C50.0881 47.1193 50.6676 47.8395 51.0938 48.6832C51.5199 49.527 51.733 50.5156 51.733 51.6491C51.733 53.1832 51.3409 54.5341 50.5568 55.7017C49.7727 56.8608 48.6392 57.7685 47.1562 58.4247C45.6818 59.0724 43.8963 59.3963 41.7997 59.3963C39.7628 59.3963 37.9943 59.081 36.4943 58.4503C35.0028 57.8196 33.8352 56.8991 32.9915 55.6889C32.1563 54.4787 31.7045 53.0043 31.6364 51.2656H36.3026C36.3707 52.1776 36.652 52.9361 37.1463 53.5412C37.6406 54.1463 38.2841 54.598 39.0767 54.8963C39.8778 55.1946 40.7727 55.3438 41.7614 55.3438C42.7926 55.3438 43.696 55.1903 44.4716 54.8835C45.2557 54.5682 45.8693 54.1335 46.3125 53.5795C46.7557 53.017 46.9815 52.3608 46.9901 51.6108C46.9815 50.929 46.7813 50.3665 46.3892 49.9233C45.9972 49.4716 45.4474 49.0966 44.7401 48.7983C44.0412 48.4915 43.223 48.2187 42.2855 47.9801L39.3068 47.2131C37.1506 46.6591 35.446 45.8196 34.1932 44.6946C32.9489 43.5611 32.3267 42.0568 32.3267 40.1818C32.3267 38.6392 32.7443 37.2884 33.5795 36.1293C34.4233 34.9702 35.5696 34.071 37.0185 33.4318C38.4673 32.7841 40.108 32.4602 41.9403 32.4602C43.7983 32.4602 45.4261 32.7841 46.8239 33.4318C48.2301 34.071 49.3338 34.9616 50.1349 36.1037C50.9361 37.2372 51.3494 38.5412 51.375 40.0156H46.8111ZM55.7056 59V55.5739L64.7951 46.6634C65.6644 45.7855 66.3889 45.0057 66.9684 44.3239C67.5479 43.642 67.9826 42.9815 68.2724 42.3423C68.5621 41.7031 68.707 41.0213 68.707 40.2969C68.707 39.4702 68.5195 38.7628 68.1445 38.1747C67.7695 37.5781 67.2539 37.1179 66.5977 36.794C65.9414 36.4702 65.1957 36.3082 64.3604 36.3082C63.4996 36.3082 62.7454 36.4872 62.0977 36.8452C61.4499 37.1946 60.9471 37.6932 60.5891 38.3409C60.2397 38.9886 60.065 39.7599 60.065 40.6548H55.5522C55.5522 38.9929 55.9315 37.5483 56.69 36.321C57.4485 35.0937 58.4925 34.1435 59.8221 33.4702C61.1602 32.7969 62.6942 32.4602 64.4244 32.4602C66.18 32.4602 67.7227 32.7884 69.0522 33.4446C70.3817 34.1009 71.413 35 72.146 36.142C72.8874 37.2841 73.2582 38.5881 73.2582 40.054C73.2582 41.0341 73.0707 41.9972 72.6957 42.9432C72.3207 43.8892 71.6602 44.9375 70.7141 46.0881C69.7766 47.2386 68.4599 48.6321 66.7639 50.2685L62.2511 54.858V55.0369H73.6545V59H55.7056ZM78.3207 32.8182H84.1246L91.8974 51.7898H92.2042L99.9769 32.8182H105.781V59H101.23V41.0128H100.987L93.7511 58.9233H90.3505L83.1147 40.9744H82.8718V59H78.3207V32.8182Z" fill="black"/>
</svg>
