<svg width="56" height="57" viewBox="0 0 56 57" fill="none" xmlns="http://www.w3.org/2000/svg">
<g clip-path="url(#clip0_229_12155)">
<g clip-path="url(#clip1_229_12155)">
<path d="M35.5258 31.6042C35.432 29.0549 33.7268 32.6456 30.492 28.5763C31.2665 28.2949 30.557 27.9942 30.3116 27.6046C35.3141 28.2949 33.2915 25.1082 30.0784 23.6363C32.0433 23.0711 33.1448 25.8153 35.2708 25.3246C36.4253 24.8845 35.7591 22.9124 36.7379 21.9816C34.3016 21.2721 32.3391 20.541 29.9846 21.1975C30.3333 21.3226 30.5353 21.3947 30.8961 21.5222C29.6503 21.871 29.0971 22.186 30.6892 22.2486C29.138 22.8859 29.7537 22.7368 30.8864 22.8883C30.5714 23.1769 30.3213 23.4054 30.0735 23.6315C30.0663 23.629 30.0591 23.6243 30.0519 23.6218L30.0688 23.6387C28.1976 22.3207 26.3409 23.8768 24.364 24.086C20.0589 25.1803 15.1791 24.5839 11.3551 26.9264C8.33432 28.2011 6.82872 33.9082 3.44243 33.23C1.51839 32.2223 1.68915 27.9846 4.3828 29.3771C5.84507 30.8851 5.83786 30.6302 4.26015 30.3872C5.36647 31.0943 5.53483 31.6595 4.21204 30.7216C4.71951 32.4291 6.83116 32.0564 7.05962 30.3584C6.61949 30.3175 6.11683 30.5075 5.85228 29.8942C3.11534 25.8754 -0.778433 31.2843 3.01192 33.6942C6.55696 35.9886 8.50746 29.8365 11.0664 28.343C9.20254 33.4753 8.99809 32.3642 5.34002 35.8972C4.31787 36.8232 4.20242 37.5591 4.94797 38.5596C4.36116 39.1176 4.24572 40.1494 5.0442 40.5293C5.66468 40.7386 8.16834 41.7439 7.48533 40.284C1.77092 33.8673 16.3744 37.8068 17.928 32.1958C18.0531 32.9823 17.4663 33.4513 17.1464 34.0838C18.4451 34.3652 19.5683 35.0362 20.8887 35.029C20.0998 33.2564 21.6679 32.2007 22.3197 30.8226C20.2586 35.1348 21.6367 35.4811 25.8454 36.561C24.5588 37.8261 23.5462 37.9079 22.0695 37.0757C20.9872 36.2002 18.9334 39.2595 20.7227 39.0334C21.3456 38.9372 21.9421 38.7881 22.5818 39.1224C24.6429 39.3773 26.4732 37.5014 28.3828 36.7919C25.7853 39.9641 29.3232 40.094 31.7427 39.3461C32.8297 38.8698 32.8177 38.8771 33.5176 39.8607C34.583 41.3326 36.2593 41.9676 34.7466 39.726C33.419 37.0805 36.1968 34.5793 35.5282 31.6066L35.5258 31.6042ZM26.4948 34.1728C27.5819 33.3022 28.5897 32.4965 29.6551 31.6427C29.4723 32.8813 28.3515 33.2781 27.5939 34.1367C28.8855 34.3315 29.4603 35.3681 28.5247 36.4047C28.188 35.2358 27.5098 34.5937 26.4948 34.1728ZM33.0414 36.1906C31.4516 33.5379 29.2703 34.1415 29.8162 37.3691C29.3232 36.8328 29.3208 36.5827 28.6137 36.9723C29.5997 35.9886 28.8879 34.1656 30.5449 33.9997C31.5094 33.4513 30.5449 31.5753 31.6922 30.6855C30.9322 32.7899 33.217 34.548 33.0414 36.1906Z" fill="black"/>
<path d="M52.7341 30.4195C52.056 25.9388 48.4389 21.8334 45.1871 19.0268C45.6104 18.4062 44.9707 18.4447 44.634 18.2379C43.7201 16.7925 41.7936 16.3595 40.1245 15.9218C39.2587 16.0348 35.8652 14.878 35.8627 15.8352C35.9974 16.9848 34.2057 16.8141 34.5784 17.9974C34.6338 18.7622 32.6616 19.0147 33.7199 19.7795C34.362 20.4265 35.1533 19.2672 36.1586 19.9142C37.1302 20.4457 35.8892 20.9892 35.3144 21.0903C36.6732 22.3794 37.4309 20.5564 38.732 20.1379C36.3823 22.2255 36.8224 26.1048 33.6357 27.2568C33.3663 28.3295 30.2326 28.1996 32.9214 28.4329C30.5524 29.722 34.3356 28.5748 32.5197 29.8447H33.9219C33.7655 30.0491 33.6597 30.1886 33.4601 30.4507C36.6107 30.0852 39.2299 28.469 41.6277 26.4295C40.6464 27.9519 40.276 28.8538 41.3655 30.9173C41.5675 32.9568 39.7132 34.7846 40.6344 36.954C42.0966 39.8425 37.6497 39.2556 36.9739 41.36C37.8686 40.9151 38.5299 40.6313 37.6689 41.7304C38.5925 41.3648 39.6699 40.9007 38.5348 42.0623C39.3164 41.8266 39.9129 41.6462 40.6801 41.4154C40.4035 41.7208 40.2592 41.8795 40.1173 42.0383C44.355 42.0743 46.0217 38.9261 46.6928 35.3546C48.1813 35.0805 49.1193 33.4306 50.1221 32.9111C49.2493 35.1574 47.561 35.2176 49.9348 37.4037C51.1083 39.0007 47.8085 39.7487 47.7222 40.9897C48.5592 40.4822 49.4371 40.0348 48.4821 41.324C50.3581 40.7155 49.4683 42.2547 52.039 40.4966C51.6905 40.9343 51.3921 41.3071 51.0169 41.7761C57.1354 39.359 53.7153 34.7967 52.7364 30.4218L52.7341 30.4195Z" fill="black"/>
<path d="M17.4433 34.6437C16.5414 34.0616 11.7794 36.2839 14.0642 36.5509C17.3783 37.1329 16.8468 39.7207 18.4702 40.3027C18.9777 40.3821 20.6636 40.6875 20.0143 39.7063C19.5717 37.4985 15.4255 36.5413 17.4433 34.6437Z" fill="black"/>
<path d="M38.0414 39.8949C40.5306 38.8006 36.4228 35.7389 36.0067 34.1348C34.5372 37.8217 36.7066 36.1863 36.7715 38.7982C36.6584 39.7506 37.1563 40.2003 38.0414 39.8949Z" fill="black"/>
</g>
</g>
<defs>
<clipPath id="clip0_229_12155">
<rect width="55.5553" height="55.5553" fill="white" transform="translate(0.225586 0.767578)"/>
</clipPath>
<clipPath id="clip1_229_12155">
<rect width="55.5553" height="55.5553" fill="white" transform="translate(0.225586 0.773438)"/>
</clipPath>
</defs>
</svg>
